<svg width="27" height="27" viewBox="0 0 27 27" fill="none" xmlns="http://www.w3.org/2000/svg">
<path fill-rule="evenodd" clip-rule="evenodd" d="M13.5 27C20.9558 27 27 20.9558 27 13.5C27 6.04416 20.9558 0 13.5 0C6.04416 0 0 6.04416 0 13.5C0 20.9558 6.04416 27 13.5 27Z" fill="#C8D2E7"/>
<path fill-rule="evenodd" clip-rule="evenodd" d="M12.5101 10.7067C12.5101 8.65956 14.1908 7 16.2641 7C17.8255 7.00747 19.2191 7.96851 19.7639 9.41338C20.3087 10.8583 19.8908 12.4852 18.7145 13.4991C17.5383 14.513 15.8492 14.7021 14.4729 13.9739L11.7915 16.6216L12.9552 17.7548L10.6814 20L9.51767 18.8615L8 17.3682L10.2846 15.1177L12.9659 12.4701C12.6663 11.9295 12.5095 11.323 12.5101 10.7067ZM16.2668 12.2966C16.6944 12.2966 17.1045 12.1284 17.4063 11.8293C18.0337 11.2091 18.0337 10.2043 17.4063 9.58411C17.1045 9.285 16.6944 9.11687 16.2668 9.11687C15.8391 9.11687 15.429 9.285 15.1272 9.58411C14.4998 10.2043 14.4998 11.2091 15.1272 11.8293C15.429 12.1284 15.8391 12.2966 16.2668 12.2966Z" fill="white"/>
</svg>
