<?xml version="1.0" encoding="UTF-8"?>
<svg width="465px" height="147px" viewBox="0 0 465 147" version="1.1" xmlns="http://www.w3.org/2000/svg" xmlns:xlink="http://www.w3.org/1999/xlink">
    <!-- Generator: Sketch 54.1 (76490) - https://sketchapp.com -->
    <title>Group</title>
    <desc>Created with Sketch.</desc>
    <g id="Smart-Contracts" stroke="none" stroke-width="1" fill="none" fill-rule="evenodd">
        <g id="Code-and-Storage" transform="translate(-663.000000, -493.000000)">
            <g id="Group" transform="translate(664.000000, 493.000000)">
                <g id="noun_building-construction_1463919_000000" transform="translate(142.000000, 0.000000)" fill-rule="nonzero">
                    <path d="M38.3004,32.1632593 L52.2576,32.1632593 L52.2576,43.569284 L38.3004,32.1632593 Z M52.2576,10.1947654 L52.2576,20.0038025 L40.2588,10.1947654 L52.2576,10.1947654 L52.2576,10.1947654 Z M33.5988,13.7636543 L47.5596,25.169679 L33.5988,25.169679 L33.5988,13.7636543 Z M33.5988,37.3327407 L47.556,48.7351605 L33.5988,48.7351605 L33.5988,37.3327407 Z M33.5988,60.8982222 L47.556,72.3042469 L33.5988,72.3042469 L33.5988,60.8982222 Z M52.2576,55.7359506 L52.2576,67.1419753 L38.3004,55.7359506 L52.2576,55.7359506 Z M33.5988,84.4673086 L47.5596,95.8733333 L33.5988,95.8733333 L33.5988,84.4673086 Z M52.2576,79.305037 L52.2576,90.7110617 L38.3004,79.305037 L52.2576,79.305037 Z M33.5988,108.036395 L45.6012,117.845432 L33.5988,117.845432 L33.5988,108.036395 Z M38.2968,102.870519 L52.2576,102.870519 L52.2576,114.276543 L38.2968,102.870519 Z M112.2048,131.08637 L112.2048,103.011111 L89.3196,103.011111 L89.3196,146 L180,146 L180,77.495358 L156.456,77.495358 L156.456,131.08637 L112.2048,131.08637 Z M127.494,7.30360494 L62.4384,17.2748642 L62.4384,0 L23.418,0 L23.418,23.2518519 L0,26.8387654 L3.8412,51.9615802 L23.4216,48.9622716 L23.4216,117.845432 L3.744,117.845432 L3.744,146 L82.116,146 L82.116,117.845432 L62.4384,117.845432 L62.4384,42.9888889 L103.968,36.6225679 L103.968,47.3580741 L93.8592,47.3580741 L93.8592,69.5753086 L121.5936,69.5753086 L121.5936,47.3580741 L110.9556,47.3580741 L110.9556,35.5482963 L131.3316,32.4228148 L127.494,7.30360494 Z" id="Shape" fill="#D8DFEB"></path>
                    <polygon id="Path" fill="#7691C4" points="152.856 89.6403951 115.8012 89.6403951 115.8012 127.485037 152.856 127.485037"></polygon>
                </g>
                <path d="M0,146 L463,146" id="Line-3-Copy" stroke="#CAD4E7" stroke-linecap="square"></path>
            </g>
        </g>
    </g>
</svg>