<svg width="12" height="13" viewBox="0 0 12 13" fill="none" xmlns="http://www.w3.org/2000/svg">
<path fill-rule="evenodd" clip-rule="evenodd" d="M4.51011 3.70672C4.51011 1.65956 6.19082 0 8.26407 0C9.82546 0.00747361 11.2191 0.968506 11.7639 2.41338C12.3087 3.85826 11.8908 5.48525 10.7145 6.49914C9.53825 7.51303 7.84919 7.7021 6.4729 6.97393L3.7915 9.62159L4.95522 10.7548L2.6814 13L1.51767 11.8615L0 10.3682L2.28455 8.11772L4.96595 5.47006C4.66625 4.92948 4.50947 4.323 4.51011 3.70672ZM8.26675 5.29657C8.69441 5.29657 9.10447 5.12844 9.40635 4.82933C10.0337 4.2091 10.0337 3.20434 9.40635 2.58411C9.10447 2.285 8.69441 2.11687 8.26675 2.11687C7.83909 2.11687 7.42903 2.285 7.12716 2.58411C6.49981 3.20434 6.49981 4.2091 7.12716 4.82933C7.42903 5.12844 7.83909 5.29657 8.26675 5.29657Z" fill="white"/>
</svg>
