<?xml version="1.0" encoding="UTF-8"?>
<svg width="224px" height="220px" viewBox="0 0 224 220" version="1.1" xmlns="http://www.w3.org/2000/svg" xmlns:xlink="http://www.w3.org/1999/xlink">
    <!-- Generator: Sketch 51.3 (57544) - http://www.bohemiancoding.com/sketch -->
    <title>Keystore</title>
    <desc>Created with Sketch.</desc>
    <defs>
        <path d="M109.5,218 C169.97518,218 219,169.199038 219,109 C219,48.8009623 169.97518,0 109.5,0 C103.491041,0 97.5951293,0.481806421 91.8491265,1.40872726 C39.7663883,9.81049397 0,54.7824835 0,109 C0,169.199038 49.0248199,218 109.5,218 Z" id="path-1"></path>
        <filter x="-2.7%" y="-2.8%" width="105.5%" height="105.5%" filterUnits="objectBoundingBox" id="filter-3">
            <feOffset dx="0" dy="0" in="SourceAlpha" result="shadowOffsetOuter1"></feOffset>
            <feGaussianBlur stdDeviation="2" in="shadowOffsetOuter1" result="shadowBlurOuter1"></feGaussianBlur>
            <feColorMatrix values="0 0 0 0 0.858823529   0 0 0 0 0.905882353   0 0 0 0 0.988235294  0 0 0 1 0" type="matrix" in="shadowBlurOuter1"></feColorMatrix>
        </filter>
        <linearGradient x1="50%" y1="0%" x2="50%" y2="100%" id="linearGradient-4">
            <stop stop-color="#F4F6FD" offset="0%"></stop>
            <stop stop-color="#FFFFFF" offset="100%"></stop>
        </linearGradient>
        <linearGradient x1="50%" y1="100%" x2="50%" y2="0%" id="linearGradient-5">
            <stop stop-color="#F5F7FD" offset="0%"></stop>
            <stop stop-color="#D7E2FA" offset="100%"></stop>
        </linearGradient>
        <linearGradient x1="50%" y1="5.4923629%" x2="50%" y2="207.19401%" id="linearGradient-6">
            <stop stop-color="#BFCFEE" offset="0%"></stop>
            <stop stop-color="#FFFFFF" offset="100%"></stop>
        </linearGradient>
    </defs>
    <g id="Keystore" stroke="none" stroke-width="1" fill="none" fill-rule="evenodd">
        <g id="Group-3" transform="translate(3.000000, 1.000000)">
            <g id="Group-39-Copy-7">
                <mask id="mask-2" fill="white">
                    <use xlink:href="#path-1"></use>
                </mask>
                <g id="Mask">
                    <use fill="black" fill-opacity="1" filter="url(#filter-3)" xlink:href="#path-1"></use>
                    <use fill="#DCE2F2" fill-rule="evenodd" xlink:href="#path-1"></use>
                </g>
                <g id="Group-8" mask="url(#mask-2)">
                    <g transform="translate(31.000000, 35.000000)">
                        <rect id="Rectangle-2" stroke="#5571A7" stroke-width="1.5" fill="#FFFFFF" x="0.75" y="22.75" width="156.5" height="102.5" rx="15"></rect>
                        <path d="M9.25,104.75 L148.75,104.75 L148.75,37 C148.75,33.8243627 146.175637,31.25 143,31.25 L15,31.25 C11.8243627,31.25 9.25,33.8243627 9.25,37 L9.25,104.75 Z" id="Rectangle-6" stroke="#5571A7" stroke-width="0.5" fill="url(#linearGradient-4)"></path>
                        <polygon id="Rectangle-4" stroke="#5571A7" stroke-width="1.5" fill="url(#linearGradient-5)" points="61.8363636 125.3 95.1636364 125.3 102 147.3 55 147.3"></polygon>
                        <path d="M124.25,10.9870374 L119.019095,5.48287628 C118.956031,5.41613812 118.956031,5.41613812 118.893731,5.3486861 L114.670485,0.75 L43,0.75 C37.8913661,0.75 33.75,4.89136606 33.75,10 L33.75,35 C33.75,40.1086339 37.8913661,44.25 43,44.25 L115,44.25 C120.108634,44.25 124.25,40.1086339 124.25,35 L124.25,10.9870374 Z" id="Rectangle-5" stroke="#5571A7" stroke-width="1.5" fill="url(#linearGradient-4)"></path>
                        <g id="Group" stroke="none" stroke-width="1" fill="none" transform="translate(62.000000, 16.000000)">
                            <path d="M27,7 L27,13" id="Line-3-Copy-2" stroke="#5571A7" stroke-width="1.5" stroke-linecap="round"></path>
                            <path d="M32,7 L32,13" id="Line-3-Copy-3" stroke="#5571A7" stroke-width="1.5" stroke-linecap="round"></path>
                            <circle id="Oval-2" stroke="#5571A7" stroke-width="1.5" cx="6.5" cy="6.5" r="5.75"></circle>
                            <path d="M12.5,6.25 L34.5,6.25" id="Line" stroke="#5571A7" stroke-width="1.5" stroke-linecap="round"></path>
                        </g>
                    </g>
                </g>
                <rect id="Rectangle" stroke="#5571A7" stroke-width="0.5" fill="url(#linearGradient-6)" mask="url(#mask-2)" x="22.25" y="183.25" width="179.5" height="41.5"></rect>
            </g>
            <polygon id="Path-4" stroke="#5571A7" stroke-width="1.5" stroke-linejoin="round" points="145 36 145 45.9994161 155 46.1889414"></polygon>
            <path d="M72.5,182.5 L147.5,182.5" id="Line-2" stroke="#5571A7" stroke-width="1.5" stroke-linecap="round" stroke-linejoin="round"></path>
        </g>
    </g>
</svg>