<svg id="Слой_1" style="fill: #d4ddf0" data-name="Слой 1" xmlns="http://www.w3.org/2000/svg" viewBox="0 0 64 64"><title>Безымянный-1</title><path d="M31.36,30.9A2.59,2.59,0,0,0,33.78,33c1.11.07,1.35.61,1.4,1.62a5.48,5.48,0,0,1-5.82,5.88c-3-.08-6.07,0-9.11,0-.78,0-1,.27-1,1q.05,2.14,0,4.28c0,.84.28,1.13,1.16,1.12,4.5,0,9-.16,13.5,0,6.14.28,10.6,3.41,13.46,8.8A15.63,15.63,0,0,1,49,62.93c0,.7-.12,1.08-1,1.06s-1.17-.13-1.19-1.07a13.6,13.6,0,0,0-8.32-12.76,12,12,0,0,0-4.65-1.08c-4.79-.15-9.59-.08-14.38-.05a1.51,1.51,0,0,0-1.09.65c-2.54,4.36-5,8.76-7.55,13.12-.27.46-.89,1.1-1.23,1a2.16,2.16,0,0,1-1.19-1.21C6.58,58.34,4.71,54,2.91,49.72c-.43-1-1.18-.69-1.83-.69S0,48.8,0,48s.22-1.2,1.06-1.06c1,.17,1.19-.38,1.19-1.27,0-8.67,0-17.34,0-26a21.12,21.12,0,0,1,1.22-7.95,17.9,17.9,0,0,1,8.34-9.44A18.16,18.16,0,0,1,25.27.63,18.19,18.19,0,0,1,37.66,10.78a19.67,19.67,0,0,1,1.81,9c0,2.12,0,4.24,0,6.37,0,1.21-.28,1.49-1.47,1.54h-.44c-.72,0-1.63-.15-2.11.22s-.25,1.26-.29,1.94-.51,1-1.17,1C33.12,30.91,32.25,30.9,31.36,30.9ZM17.1,46.9c0-2.34,0-4.53,0-6.71,0-1.56.22-1.78,1.78-1.79,3.44,0,6.88,0,10.32,0A6.63,6.63,0,0,0,31,38.12a3.07,3.07,0,0,0,2-2.48c-.06-.94-1-.84-1.59-1.19a5.13,5.13,0,0,1-2.59-4.29c0-.86.34-1.31,1.22-1.31a14.85,14.85,0,0,0,2.19,0,1.13,1.13,0,0,0,.77-.73c.29-2.49.26-2.49,2.76-2.5.18,0,.37,0,.55,0,.83.08,1.07-.32,1.05-1.11,0-1.76.15-3.53-.05-5.26A24.77,24.77,0,0,0,36,12.37C32.71,4.61,24.87.82,16.6,2.69A15.84,15.84,0,0,0,4.4,17.82C4.37,27.19,4.34,46,4.34,46v.88m.6,2.16L9.81,60.43l6.5-11.35Z"/><path d="M48.9,35.13c-3.33,0-6.66,0-10,0-.47,0-1.24-.26-1.33-.57A2,2,0,0,1,38,33c1-1.32,2.06-2.54,3-3.87a3,3,0,0,0,.49-1.6c0-3.18.11-6.37,0-9.55a5.76,5.76,0,0,1,6.23-6.25c3.47.15,6.95,0,10.42,0S64,14.07,64,17.68c0,3.91,0,7.83,0,11.74a5.48,5.48,0,0,1-2.18,4.65,5.37,5.37,0,0,1-3.35,1.06C55.27,35.12,52.09,35.13,48.9,35.13ZM40.66,33c.56,0,.84.08,1.13.08H58.36a3.17,3.17,0,0,0,3.4-3.31q.06-6.26,0-12.52A3,3,0,0,0,58.4,14c-3.62,0-7.25,0-10.87,0-2.72,0-3.82,1.11-3.83,3.86,0,3.37,0,6.73,0,10.1a3.32,3.32,0,0,1-.86,2.37C42.15,31.1,41.49,32,40.66,33Z"/><path d="M22.55,17.13h1.89c.41,1.79,1.34,3.09,3.34,3.13,1.62,0,2.55-.88,3.29-3.12h2a5.19,5.19,0,0,1-2.55,4.47,4.73,4.73,0,0,1-5.26.14A4.87,4.87,0,0,1,22.55,17.13Z"/><rect x="20.15" y="51.32" width="1.76" height="1.76"/><rect x="23.22" y="51.32" width="1.76" height="1.76"/><rect x="26.3" y="51.32" width="1.76" height="1.76"/><path d="M52.65,29.79a6.59,6.59,0,1,1,6.59-6.59A6.6,6.6,0,0,1,52.65,29.79Zm0-11.42a4.83,4.83,0,1,0,4.83,4.83A4.84,4.84,0,0,0,52.65,18.37Z"/><path d="M52.65,29.79c-2,0-2.86-3.42-2.86-6.59s.89-6.59,2.86-6.59S55.51,20,55.51,23.2,54.62,29.79,52.65,29.79Zm0-11.4c-.36.29-1.1,1.93-1.1,4.81s.74,4.52,1.1,4.81c.36-.29,1.1-1.93,1.1-4.81S53,18.69,52.65,18.4Z"/><rect x="46.5" y="22.32" width="11.86" height="1.76"/></svg>