<?xml version="1.0" encoding="UTF-8"?>
<svg width="470px" height="187px" viewBox="0 0 470 187" version="1.1" xmlns="http://www.w3.org/2000/svg" xmlns:xlink="http://www.w3.org/1999/xlink">
    <!-- Generator: sketchtool 53.2 (72643) - https://sketchapp.com -->
    <title>5BD15351-81FF-416D-A8F5-7D875C99DD0E@1.00x</title>
    <desc>Created with sketchtool.</desc>
    <defs>
        <radialGradient cx="48.8821476%" cy="55.5051813%" fx="48.8821476%" fy="55.5051813%" r="52.3174385%" gradientTransform="translate(0.488821,0.555052),scale(0.410638,1.000000),rotate(90.000000),scale(1.000000,2.372696),translate(-0.488821,-0.555052)" id="radialGradient-1">
            <stop stop-color="#D8DFEB" offset="0%"></stop>
            <stop stop-color="#D8DFEB" stop-opacity="0" offset="100%"></stop>
        </radialGradient>
    </defs>
    <g id="Smart-Contracts-v2" stroke="none" stroke-width="1" fill="none" fill-rule="evenodd">
        <g id="Final-Warning-Message" transform="translate(-245.000000, -111.000000)">
            <g id="noun_laptop-warning_1569139_000000" transform="translate(246.000000, 105.000000)">
                <path d="M0,172 L463,172" id="Line-3-Copy" stroke="#CAD4E7" stroke-linecap="square"></path>
                <rect id="Rectangle" fill="url(#radialGradient-1)" opacity="0.157831101" x="0" y="0" width="470" height="193"></rect>
                <g id="Group" transform="translate(131.000000, 20.000000)" fill-rule="nonzero">
                    <path d="M180.357143,-3.55271368e-13 C182.346846,0.00596202106 183.958343,1.62277758 183.964286,3.61904762 L183.964286,130.285714 L132.923214,130.285714 C129.851317,130.229897 127.089376,132.155052 126.069643,135.062857 C125.878636,135.604142 125.556325,136.089204 125.131786,136.474286 C124.485683,137.159028 123.58253,137.539867 122.642857,137.52381 L79.3571429,137.52381 C77.8001955,137.512201 76.4229225,136.508565 75.9303571,135.026667 C74.8940266,132.136471 72.1377075,130.229789 69.0767857,130.285714 L18.0357143,130.285714 L18.0357143,3.61904762 C18.0416567,1.62277758 19.6531538,0.00596202106 21.6428571,-3.55271368e-13 L180.357143,-3.55271368e-13 Z M176.75,115.809524 L176.75,14.4761905 C176.738371,10.4835435 173.515228,7.24976237 169.535714,7.23809524 L129.857143,7.23809524 C127.864973,7.23809524 126.25,8.85839805 126.25,10.8571429 C126.25,12.8558877 127.864973,14.4761905 129.857143,14.4761905 L169.535714,14.4761905 L169.535714,115.809524 L32.4642857,115.809524 L32.4642857,14.4761905 L72.1428571,14.4761905 C74.1350271,14.4761905 75.75,12.8558877 75.75,10.8571429 C75.75,8.85839805 74.1350271,7.23809524 72.1428571,7.23809524 L32.4642857,7.23809524 C28.4847725,7.24976237 25.2616288,10.4835435 25.25,14.4761905 L25.25,115.809524 C25.2617075,119.802138 28.4848052,123.035873 32.4642857,123.047619 L169.535714,123.047619 C173.515195,123.035873 176.738292,119.802138 176.75,115.809524 Z M101,10.8571429 C97.0081091,10.8905842 93.308952,12.9645825 91.1885714,16.3580952 L48.985,81.6095238 C46.3937868,85.6461315 46.2002287,90.7784765 48.48,95 C50.4863271,98.8803531 54.4755016,101.320804 58.8325,101.333333 L143.1675,101.333333 C147.524498,101.320804 151.513673,98.8803531 153.52,95 C155.799771,90.7784765 155.606213,85.6461315 153.015,81.6095238 L110.811429,16.3580952 C108.691048,12.9645825 104.991891,10.8905842 101,10.8571429 Z" id="Combined-Shape" fill="#D8DFEB"></path>
                    <path d="M146.955,85.5180952 C148.117364,87.3432689 148.200246,89.6577462 147.171429,91.5619048 C146.403385,93.08148 144.865205,94.054705 143.1675,94.0952381 L58.8325,94.0952381 C57.1347953,94.054705 55.5966151,93.08148 54.8285714,91.5619048 C53.7997545,89.6577462 53.8826358,87.3432689 55.045,85.5180952 L97.2125,20.2666667 C98.0027913,18.9211402 99.4433656,18.0952381 101,18.0952381 C102.556634,18.0952381 103.997209,18.9211402 104.7875,20.2666667 L146.955,85.5180952 Z M103.561071,82.1885714 C104.21978,81.4947549 104.593344,80.5771474 104.607143,79.6190476 C104.601851,79.1460755 104.503796,78.6787762 104.318571,78.2438095 C104.135538,77.8054246 103.87937,77.4015463 103.561071,77.0495238 C103.384284,76.8849981 103.190854,76.7394467 102.983929,76.6152381 C102.79991,76.4717894 102.592408,76.361573 102.370714,76.2895238 C102.155811,76.1795938 101.924211,76.1062156 101.685357,76.072381 C100.508536,75.8350701 99.2912125,76.2014723 98.4389286,77.0495238 C98.1206296,77.4015463 97.8644616,77.8054246 97.6814286,78.2438095 C97.4962043,78.6787762 97.3981492,79.1460755 97.3928571,79.6190476 C97.3989994,79.8617774 97.4231134,80.1037136 97.465,80.3428571 C97.5042191,80.5696493 97.5771762,80.7892429 97.6814286,80.9942857 C97.7531393,81.2167543 97.8630022,81.4249579 98.0060714,81.6095238 C98.1298056,81.8171766 98.2748832,82.0112518 98.4389286,82.1885714 C99.1266567,82.8553305 100.043669,83.2311209 101,83.2380952 C101.229983,83.2319188 101.459133,83.2077181 101.685357,83.1657143 C101.924235,83.1319827 102.155851,83.0585993 102.370714,82.9485714 C102.592446,82.8766131 102.799963,82.7663886 102.983929,82.6228571 C103.200357,82.4780952 103.380714,82.3333333 103.561071,82.1885714 Z M104.607143,65.1428571 L104.607143,39.8095238 C104.607143,37.810779 102.99217,36.1904762 101,36.1904762 C99.00783,36.1904762 97.3928571,37.810779 97.3928571,39.8095238 L97.3928571,65.1428571 C97.3928571,67.141602 99.00783,68.7619048 101,68.7619048 C102.99217,68.7619048 104.607143,67.141602 104.607143,65.1428571 Z" id="Combined-Shape" fill="#7691C4"></path>
                    <path d="M132.923214,137.52381 C132.31977,139.054854 131.411508,140.446372 130.253929,141.613333 C128.239758,143.643456 125.497846,144.777738 122.642857,144.761905 L79.3571429,144.761905 C74.6986862,144.758161 70.5619585,141.7728 69.0767857,137.342857 L14.645,137.487619 C14.5728571,137.487619 14.5007143,137.52381 14.4285714,137.52381 C14.3564286,137.52381 14.2842857,137.487619 14.2121429,137.487619 L0,137.52381 L0,141.142857 C0.0174923749,147.131807 4.85217919,151.98245 10.8214286,152 L191.178571,152 C197.147821,151.98245 201.982508,147.131807 202,141.142857 L202,137.52381 L132.923214,137.52381 Z" id="Path" fill="#C6D0E1"></path>
                </g>
            </g>
        </g>
    </g>
</svg>