<svg id="Слой_1" style="fill: #d4ddf0" data-name="Слой 1" xmlns="http://www.w3.org/2000/svg" viewBox="0 0 64 64"><defs><style>.cls-1{fill:#fff;}</style></defs><title>Безымянный-1</title><path d="M37.58,40.79v.93H1.79c-.74,0-.72-.09-.71.73,0,.6,0,1.2,0,1.79a1.11,1.11,0,0,0,1,1.11,6.5,6.5,0,0,0,.84,0H37c.57,0,.82.36.59.89a.36.36,0,0,1-.27.15c-.24,0-.48,0-.72,0H28.48c-.63,0-.65,0-.64.64s0,1.5.06,2.25a3.34,3.34,0,0,0,.4,1.15A3.57,3.57,0,0,0,30,51.89a1,1,0,0,0,.45.07l3.36,0c.39,0,.59.18.58.52s-.29.42-.58.42H12.39c-.3,0-.58,0-.58-.43S12,52,12.4,52l3.32,0a1.84,1.84,0,0,0,1.18-.5,5.65,5.65,0,0,0,.93-.94,2,2,0,0,0,.48-1.2c0-.78,0-1.55,0-2.33,0-.52,0-.55-.57-.55H6.71c-1.32,0-2.65,0-4,0a2.76,2.76,0,0,1-2.12-.87A3.17,3.17,0,0,1,0,43.9a2.58,2.58,0,0,1,0-.42Q0,27.61,0,11.73a3.14,3.14,0,0,1,.53-2,1.93,1.93,0,0,1,1.27-.83,9.49,9.49,0,0,1,1.25-.08H43.14a10,10,0,0,1,1.1.06A2,2,0,0,1,46,10.55a12.2,12.2,0,0,1,.19,1.92q0,12.5,0,25c0,.19,0,.51-.12.54a2.48,2.48,0,0,1-.82,0s-.1-.13-.11-.21a2.44,2.44,0,0,1,0-.38q0-11.56,0-23.13c0-.83,0-.83-.83-.83H1.77c-.69,0-.69,0-.69.7q0,13,0,25.91c0,.11,0,.23,0,.34s.13.4.41.37a3.61,3.61,0,0,1,.38,0h35.7ZM23.09,12.54H44.79c.23,0,.32-.1.32-.33,0-.39,0-.79,0-1.18a1.23,1.23,0,0,0-1.31-1.24H2.85l-.8,0a.57.57,0,0,0-.28.08,1.43,1.43,0,0,0-.69,1.34c0,.23,0,.46,0,.69,0,.61,0,.61.6.61Zm0,39.45h4.5a1.68,1.68,0,0,0,.45,0c.05,0,.12-.2.09-.23a7.17,7.17,0,0,1-.64-.78,3.42,3.42,0,0,1-.48-1.2c-.11-.92-.12-1.85-.15-2.77,0-.34-.12-.52-.49-.52H19.84c-.36,0-.5.16-.49.51,0,.53,0,1.07,0,1.6a5.66,5.66,0,0,1-.24,1.61,3.12,3.12,0,0,1-1,1.54s0,.22.08.24a1.67,1.67,0,0,0,.45,0Z"/><path d="M38.82,47.35q0-3.28,0-6.56c0-.87.33-1.2,1.2-1.2h13.2c.83,0,1.17.34,1.17,1.15q0,6.64,0,13.28c0,.79-.35,1.14-1.14,1.14H40c-.81,0-1.15-.34-1.15-1.17Q38.82,50.67,38.82,47.35ZM53,43.25H40.22c0,.14,0,.27,0,.39,0,3.19,0,6.38,0,9.58,0,.38.13.43.46.43H52.48c.5,0,.5,0,.5-.5q0-4.71,0-9.42Zm-9.11-1.53H47.1a.71.71,0,0,0,.73-.38.65.65,0,0,0-.66-.92H40.58c-.08,0-.18,0-.22,0s-.42.3-.46.49a.82.82,0,0,0,.21.63.84.84,0,0,0,.56.16C41.73,41.73,42.8,41.72,43.86,41.72Zm8.84,0a.65.65,0,1,0,0-1.29.65.65,0,1,0,0,1.29Zm-2.12-1.29a.65.65,0,0,0,0,1.29.65.65,0,0,0,0-1.29Z"/><path d="M15,21.81c0-.31,0-.61,0-.92,0-.56.2-.76.74-.88s1.06-.29,1.59-.44l.18-.06c.63-.13,1.26-.24,1.88-.4a15.56,15.56,0,0,1,1.65-.48c.83-.11,1.61-.6,2.48-.38.59.15,1.17.33,1.76.5l.15,0c.61.13,1.23.25,1.84.39s1.11.3,1.67.45l.3.07a9.38,9.38,0,0,1,1.49.36.88.88,0,0,1,.37.68c0,.8,0,1.6,0,2.4,0,.35-.07.71-.11,1.06-.12.91-.21,1.83-.39,2.73a13.52,13.52,0,0,1-.62,2,13.12,13.12,0,0,1-.88,2,10.44,10.44,0,0,1-2.12,2.67,4.68,4.68,0,0,1-1.7,1.06,7.29,7.29,0,0,1-1.94.42,6.37,6.37,0,0,1-2.94-.67,5.94,5.94,0,0,1-2.1-1.84c-.38-.5-.74-1-1.09-1.52a3,3,0,0,1-.32-.63c-.25-.65-.46-1.31-.72-2a19.52,19.52,0,0,1-.65-2.38C15.14,24.69,15.27,23.24,15,21.81Zm15,1.36h.08c0-.57,0-1.14,0-1.72s-.21-.7-.71-.79-1.2-.24-1.8-.37l-.07,0c-.53-.17-1.06-.36-1.61-.49s-1.21-.23-1.82-.34l-.22-.06a8.94,8.94,0,0,0-1.1-.16c-.17,0-.34.16-.52.2l-3,.65-.19,0c-.74.19-1.48.37-2.21.58-.56.16-.73.3-.7.81A19.11,19.11,0,0,0,16.44,26c.19.63.27,1.3.4,1.95a.61.61,0,0,0,0,.11l.47,1.14.31.73a5.21,5.21,0,0,0,.41.9c.34.5.75.95,1.11,1.44a5.22,5.22,0,0,0,3.06,1.92,4.23,4.23,0,0,0,2.67-.31,5.4,5.4,0,0,0,2-1.45,7,7,0,0,0,1.35-2c.09-.24.23-.45.33-.69.19-.44.4-.87.56-1.32a11,11,0,0,0,.32-1.24c.19-.86.4-1.71.53-2.57A9.12,9.12,0,0,0,30,23.18Z"/><path d="M11.69,22.83c.75,0,1.5,0,2.25,0,.42,0,.43.26.43.55s0,.53-.42.53H9.38a.6.6,0,0,1-.67-.53c0-.31.28-.54.69-.54Z"/><path d="M11.57,21.91H9.24c-.27,0-.56,0-.54-.4s.14-.52.54-.52c1.59,0,3.18,0,4.76,0,.46,0,.32.32.35.56s-.06.39-.36.39C13.2,21.9,12.38,21.91,11.57,21.91Z"/><path d="M10.18,33.27c-.65,0-1.3,0-1.95,0-.39,0-.45-.2-.47-.53s.18-.41.45-.41h3.93c.31,0,.43.12.41.43s0,.52-.43.51C11.48,33.25,10.83,33.27,10.18,33.27Z"/><path d="M58.51,28.92l.73.83A1.74,1.74,0,0,0,59,30a.4.4,0,0,0-.07.29.31.31,0,0,0,.25.16c.43-.06.5.17.46.51,0,.13,0,.27,0,.38a.6.6,0,0,1-.26.27,3.14,3.14,0,0,1-.48.18l.25.42a1.18,1.18,0,0,0,.12.14l-.81.78a3.21,3.21,0,0,0-.31-.29.32.32,0,0,0-.25-.07c-.07,0-.11.14-.14.23s0,.47-.09.48a4.42,4.42,0,0,1-1,0s-.07-.21-.11-.32l-.16-.42c-.12.07-.25.13-.36.21a2.73,2.73,0,0,0-.25.21l-.77-.8c.11-.12.24-.24.35-.38s.08-.31-.12-.37-.5,0-.53-.09a2.38,2.38,0,0,1-.06-.74,2.32,2.32,0,0,1,0-.29c.84-.16.84-.16.34-.82l.79-.77a1.73,1.73,0,0,0,.27.25.39.39,0,0,0,.29.06.31.31,0,0,0,.16-.25c0-.38.14-.47.47-.43a3,3,0,0,1,.45,0,.51.51,0,0,1,.25.23,2.94,2.94,0,0,1,.17.45l.43-.21A1.63,1.63,0,0,0,58.51,28.92Zm-3.62,2.47c.27.09.57-.08.73.32s-.27.44-.31.72l.46.47c.73-.55.81-.52,1.05.41h.65c.14-.24-.1-.56.28-.74s.48.23.68.29l.55-.45c-.1-.27-.48-.33-.3-.73s.48-.17.71-.3v-.67c-.23-.13-.55.09-.7-.32s.2-.47.27-.7l-.46-.5c-.25.1-.33.42-.71.27s-.22-.46-.32-.67h-.68c-.11.78-.37.89-1,.42l-.5.47c.08.26.41.3.29.67s-.45.27-.71.35Z"/><path d="M35.53,31.41h-1.3c-.44,0-.59-.14-.59-.51s.14-.53.57-.53h2.63c.38,0,.63.22.63.51s-.25.53-.65.53Z"/><path d="M33.89,20.05c-.57,0-1.14,0-1.71,0-.35,0-.37-.17-.36-.42s-.06-.49.34-.48q1.75,0,3.51,0c.37,0,.36.2.37.46s0,.46-.39.44C35.06,20,34.48,20.05,33.89,20.05Z"/><path d="M29,18.23H27.49c-.37,0-.46-.2-.48-.53s.21-.4.46-.4h3c.3,0,.43.12.42.44s-.07.51-.44.5S29.47,18.23,29,18.23Z"/><path d="M36.48,18.23H35c-.35,0-.44-.18-.46-.5s.15-.43.43-.43h3c.3,0,.43.13.41.44s-.07.49-.42.49H36.48Z"/><path d="M9.71,35.08H8.11c-.3,0-.35-.16-.34-.41s0-.47.33-.46h3.2c.35,0,.34.23.35.49s-.11.39-.38.39H9.71Z"/><path d="M35.5,29.44H34c-.3,0-.4-.14-.38-.43s0-.51.38-.51c1,0,2,0,3,0,.36,0,.44.22.46.52s-.22.4-.46.4c-.51,0-1,0-1.52,0Z"/><path d="M11.57,20.05H10.09c-.31,0-.43-.14-.43-.44s.13-.45.43-.45h3.08c.38,0,.3.25.31.47s0,.44-.31.43C12.63,20,12.1,20.05,11.57,20.05Z"/><path d="M38.4,27.57c-.5,0-1,0-1.49,0s-.39-.2-.39-.47.07-.43.39-.43c1,0,2,0,3,0,.35,0,.31.21.31.43s.07.48-.31.47S38.91,27.57,38.4,27.57Z"/><path d="M7.78,27.58c-.48,0-1,0-1.45,0s-.39-.17-.38-.45,0-.47.37-.46c1,0,2,0,2.93,0,.33,0,.42.15.42.44s-.06.47-.4.46C8.77,27.56,8.27,27.58,7.78,27.58Z"/><path d="M38.4,25.76c-.48,0-1,0-1.44,0s-.39-.28-.42-.54.13-.4.41-.4c1,0,2,0,2.93,0,.33,0,.39.16.36.43s.07.53-.36.52S38.89,25.76,38.4,25.76Z"/><path d="M7.76,25.76c-.48,0-1,0-1.44,0S6,25.48,6,25.24s0-.43.36-.42c1,0,2,0,2.93,0,.29,0,.44.11.41.4s0,.55-.42.54S8.25,25.76,7.76,25.76Z"/><path d="M38.85,23.91h-1c-.38,0-.42-.26-.42-.54s.06-.54.44-.53h1.94c.41,0,.38.3.38.56s0,.52-.39.51Z"/><path d="M33.17,23.91h-1c-.39,0-.36-.29-.36-.54s0-.54.36-.53h2c.36,0,.38.28.38.54s0,.53-.38.53Z"/><path d="M13.21,18.23H12c-.41,0-.32-.3-.35-.53s0-.41.35-.41h2.43c.26,0,.51,0,.49.41s-.14.53-.49.52Z"/><path d="M33.94,24.83h1.22c.31,0,.36.18.33.42s0,.51-.34.51H32.64c-.37,0-.4-.31-.42-.56s.18-.36.43-.36Z"/><path d="M22.17,43.54a.87.87,0,0,1,1-.92.89.89,0,0,1,.89,1c0,.62-.29.87-1,.86S22.17,44.2,22.17,43.54Z"/><path d="M35,33.26H34c-.37,0-.33-.26-.34-.5s0-.42.34-.42h2.13c.25,0,.44.11.41.39s-.07.55-.44.55H35Z"/><path d="M7.3,20.05H6.24c-.33,0-.28-.22-.28-.42s-.1-.47.26-.47H8.43c.35,0,.29.25.29.46s0,.45-.31.43S7.67,20.05,7.3,20.05Z"/><path d="M38.89,33.27h-1.1c-.39,0-.29-.31-.32-.52s0-.41.3-.41h2.17c.31,0,.31.21.29.42s.09.52-.31.52Z"/><path d="M7.33,29.44c-.34,0-.68,0-1,0S5.92,29.3,6,29s-.1-.55.33-.54H8.38c.42,0,.31.32.34.54s-.06.41-.36.4S7.67,29.44,7.33,29.44Z"/><path d="M31.35,33.27H30.29c-.39,0-.31-.29-.33-.51s0-.43.33-.43h2.13c.31,0,.32.2.29.41s.11.53-.29.53Z"/><path d="M14.82,33.27h-1c-.4,0-.3-.29-.32-.51s0-.44.31-.43h2.09c.29,0,.38.15.36.41s.06.54-.35.54Z"/><path d="M13,29.44H12c-.29,0-.34-.18-.31-.4s-.08-.53.31-.53h2.13c.38,0,.26.31.28.51s0,.43-.27.43Z"/><path d="M60.65,42.14l.55-.56.12.09.32.14a1.12,1.12,0,0,1,.12-.29c.07-.09.18-.21.27-.2s.5,0,.55.14c.2.44.17.46.59.11l.52.58c-.34.47-.34.47.31.6a3.11,3.11,0,0,1,0,.55c0,.09-.13.17-.21.23a1.73,1.73,0,0,1-.32.13l.18.31.09.12-.56.56-.24-.21c-.18-.15-.31-.09-.29.12s-.16.4-.44.37c-.12,0-.25,0-.36,0-.16-.65-.16-.65-.64-.26l-.5-.62c0-.05.15-.12.18-.22a.45.45,0,0,0-.06-.27c-.58.05-.41-.36-.42-.66a.69.69,0,0,1,0-.14C61,42.59,61,42.59,60.65,42.14Zm1.76,2.61c.09-.66.21-.71.76-.33l.35-.32c-.4-.51-.36-.59.29-.79v-.44c-.6-.13-.67-.29-.33-.76l-.32-.39c-.44.38-.61.3-.78-.26h-.47c-.08.54-.25.61-.77.3l-.32.34c.37.44.32.57-.31.78l0,.46c.6.07.65.2.34.73l.29.39c.51-.44.62-.4.79.28Z"/><path d="M6.84,23.91H6.57c-.55,0-.79-.34-.56-.86a.39.39,0,0,1,.27-.2c.38,0,.76,0,1.14,0s.35.3.35.56,0,.5-.37.51H6.84Z"/><path d="M31.8,31.41h-.3c-.52,0-.68-.19-.6-.7a.36.36,0,0,1,.41-.36h1c.37,0,.38.26.38.52s0,.53-.38.52H31.8Z"/><path d="M6.85,31.41h-.3c-.53,0-.75-.31-.55-.81a.46.46,0,0,1,.33-.23c.35,0,.71,0,1.06,0s.38.26.38.53,0,.52-.39.52H6.85Z"/><path d="M39.29,31.41H39c-.55,0-.67-.15-.61-.69a.35.35,0,0,1,.39-.36h1c.4,0,.39.28.39.55s0,.51-.41.5Z"/><path d="M11.62,30.37c.15,0,.31,0,.46,0a.46.46,0,0,1,.48.51.45.45,0,0,1-.47.52c-.33,0-.66,0-1,0s-.39-.27-.39-.54.05-.49.38-.5h.53Z"/><path d="M36.46,35.09H36c-.28,0-.48-.05-.49-.42s.17-.47.48-.47H37c.29,0,.47.08.47.44s-.15.45-.46.45Z"/><path d="M9.74,17.3c.18,0,.36,0,.53,0s.45.09.43.4-.11.52-.46.53H9.14c-.34,0-.4-.23-.43-.51s.17-.39.42-.41.41,0,.61,0Z"/><path d="M31.8,29.44h-.38c-.52,0-.56-.05-.53-.57,0-.26.1-.39.39-.38a9.15,9.15,0,0,0,1.06,0c.45,0,.34.29.37.54s-.08.43-.38.41S32,29.44,31.8,29.44Z"/><path d="M16.77,18.23a4.29,4.29,0,0,0-.49,0c-.33,0-.42-.13-.42-.42,0-.47,0-.52.5-.52h1c.31,0,.32.2.29.41s.11.53-.3.53h-.61Z"/><path d="M34.57,21.91h-.42c-.51,0-.53,0-.51-.55,0-.27.12-.39.39-.38h1.14c.38,0,.29.31.32.53s0,.41-.31.4Z"/><path d="M32.73,17.29h.34c.56,0,.72.21.54.75a.36.36,0,0,1-.27.18c-.4,0-.81,0-1.22,0s-.27-.32-.29-.53,0-.42.3-.41h.61Z"/><path d="M39.32,21.91H39c-.55,0-.71-.22-.53-.75a.36.36,0,0,1,.27-.18c.4,0,.81,0,1.22,0s.26.33.29.53,0,.41-.3.4S39.52,21.91,39.32,21.91Z"/><path d="M6.87,21.91H6.49c-.55,0-.57,0-.53-.59,0-.24.09-.37.37-.35s.76,0,1.14,0,.28.31.31.52,0,.42-.29.41H6.87Z"/><path d="M6.83,18.23a4.15,4.15,0,0,0-.46,0c-.29,0-.41-.09-.42-.38,0-.53,0-.56.53-.56h1c.3,0,.33.19.3.41s.1.52-.3.53H6.83Z"/><path d="M39.34,34.2a3.72,3.72,0,0,0,.46,0c.36,0,.45.11.45.45s-.11.47-.46.45a8.75,8.75,0,0,0-1.06,0c-.34,0-.31-.21-.31-.43s-.06-.48.31-.46C38.93,34.21,39.14,34.2,39.34,34.2Z"/><path d="M39.3,29.44h-.38c-.5,0-.52,0-.51-.55,0-.29.11-.41.41-.39a7.68,7.68,0,0,0,1,0c.43,0,.37.26.39.52s-.08.45-.41.42S39.48,29.44,39.3,29.44Z"/><path d="M34.6,26.68H35c.48,0,.65.22.49.69a.37.37,0,0,1-.27.19c-.42,0-.84,0-1.25,0s-.29-.26-.3-.48,0-.41.31-.4h.65Z"/><path d="M11.59,27.58h-.38c-.5,0-.53,0-.52-.55,0-.23.08-.35.33-.35s.79,0,1.18,0,.35.16.34.41,0,.5-.35.48h-.61Z"/><path d="M33.85,35.09c-.24,0-.62.14-.61-.41,0-.36.11-.53.48-.48a2.54,2.54,0,0,0,.3,0c.5,0,.67.24.5.72a.32.32,0,0,1-.21.16A2.55,2.55,0,0,1,33.85,35.09Z"/><path d="M36,22.83a.59.59,0,0,1,.49.53.57.57,0,0,1-.53.53.53.53,0,0,1,0-1.07Z"/><path d="M10.21,29.44c-.31,0-.55-.06-.54-.41a.48.48,0,0,1,.49-.53c.38,0,.53.15.54.51S10.44,29.42,10.21,29.44Z"/><path d="M13.06,34.21c.44-.1.4.19.43.49,0,.47-.28.36-.54.39-.43,0-.38-.23-.4-.5S12.76,34.17,13.06,34.21Z"/><path d="M37.35,20c-.4.1-.41-.15-.44-.47s.25-.39.53-.42.4.2.41.49S37.68,20.1,37.35,20Z"/><path d="M14.36,27.15c.09.38-.13.43-.45.44s-.44-.11-.45-.46.14-.45.49-.46S14.42,26.82,14.36,27.15Z"/><path d="M19.12,17.3c.3,0,.41.12.39.42s0,.54-.4.52-.49-.06-.51-.53S18.82,17.29,19.12,17.3Z"/><path d="M11.16,24.83c.31,0,.52.05.49.44s-.13.49-.58.49-.34-.32-.36-.57S10.89,24.8,11.16,24.83Z"/><path d="M39.35,17.78c0-.3,0-.52.38-.49s.54,0,.52.39,0,.53-.44.56S39.28,18.13,39.35,17.78Z"/><path d="M39.73,20.05c-.33.08-.4-.11-.4-.44s.08-.46.44-.46.5.11.47.48S40.23,20.05,39.73,20.05Z"/><path d="M6.91,34.15c-.08.39-.05.72-.21.9S6.17,35.12,6,35a.67.67,0,0,1,0-.66A2.45,2.45,0,0,1,6.91,34.15Z"/><path d="M6.85,32.73c0,.54,0,.52-.5.55S6,33,6,32.72c0-.42.24-.38.51-.39S6.9,32.5,6.85,32.73Z"/><path d="M32.72,21.5c0,.25,0,.44-.39.42s-.56,0-.5-.39c0-.26-.07-.58.39-.55S32.71,21,32.72,21.5Z"/><path d="M9.67,30.88c0,.25-.09.51-.42.53a.56.56,0,0,1-.53-.52.56.56,0,0,1,.55-.51C9.58,30.39,9.62,30.63,9.67,30.88Z"/><path d="M37,21.91c-.28,0-.44-.07-.44-.37S36.64,21,37,21s.51.16.52.54S37.22,21.89,37,21.91Z"/><path class="cls-1" d="M56.53,31a.65.65,0,0,0,.64.62.64.64,0,1,0-.64-.62Z"/><path class="cls-1" d="M62.66,43.07a.43.43,0,0,0-.46-.45.46.46,0,1,0,0,.91A.44.44,0,0,0,62.66,43.07Z"/><path d="M24,11.17c.07.5-.44.88-.93.88a.88.88,0,0,1-.92-.9,1.05,1.05,0,0,1,.94-1A1,1,0,0,1,24,11.17Z"/><path d="M42.54,51.62a1.49,1.49,0,0,1,1.49-2,.58.58,0,0,0,.4-.13q1.63-1.6,3.24-3.24a.65.65,0,0,0,.11-.44,1.5,1.5,0,0,1,2-1.47l-.8.84,1,.88.68-.82a1.41,1.41,0,0,1-1.28,2,1,1,0,0,0-.79.34c-1,1-1.95,2-2.93,3a.59.59,0,0,0-.2.53,1.46,1.46,0,0,1-2,1.39l.93-.73-1-1Z"/><path d="M46.75,50.08c.47-.42.95-.84,1.41-1.28.14-.13.24-.14.38,0,.66.67,1.33,1.33,2,2a.7.7,0,0,1,0,1.05c-.85.95-1.08,1-2,.06l-1.65-1.63a.27.27,0,0,1,0-.06Z"/><path d="M45.91,47.14l-.59.57a7.35,7.35,0,0,1-.55-.52,3.88,3.88,0,0,0-1.52-1.1c-.55-.22-.58-.79-.81-1.23-.09-.18.55-.61.76-.54a1.9,1.9,0,0,1,1.24,1.07,4.06,4.06,0,0,0,.73,1C45.39,46.64,45.65,46.87,45.91,47.14Z"/><path d="M20.23,26l1.67,1.6c.24.24.45.5.7.73s.4.12.51-.17.32-.68.48-1,.21-.48.31-.72.28-.71.41-1.07.2-.56.33-.83.33-.64.49-1,.23-.52.33-.79.12-.4.37-.34a.81.81,0,0,1,.49.27.71.71,0,0,1,0,.53c-.15.39-.33.77-.51,1.15l-.49,1c-.12.26-.25.51-.35.77-.23.59-.43,1.19-.67,1.78-.13.33-.3.65-.47,1a4.32,4.32,0,0,1-.45.83.52.52,0,0,1-.51.06c-.65-.61-1.27-1.26-1.89-1.9L20,27c-.33-.32-.32-.46.05-.74C20.12,26.27,20.14,26.2,20.23,26Z"/><path d="M56.53,31a.64.64,0,1,1,.64.62A.65.65,0,0,1,56.53,31Z"/><path d="M62.66,43.07a.44.44,0,0,1-.46.46.46.46,0,1,1,.46-.46Z"/></svg>