<svg id="Слой_1" data-name="Слой 1" xmlns="http://www.w3.org/2000/svg" viewBox="0 0 500.5 405.01"><defs><style>.cls-1{fill:#d4dcef;}.cls-2{fill:#d7ddea;}.cls-3{fill:#e8ebf4;}.cls-4{fill:#e3e8f3;}.cls-5{fill:#f3f5fa;}.cls-6{fill:#f4f4f6;}.cls-7{fill:#f4f5f6;}.cls-8{fill:#f5f6f8;}.cls-9{fill:#f6f6f7;}.cls-10{fill:#f2f5f9;}.cls-11{fill:#f1f4f9;}.cls-12{fill:#f4f7fa;}.cls-13{fill:#f5f7fa;}.cls-14{fill:#f2f4f9;}.cls-15{fill:#fefefe;}.cls-16{fill:#dfe5f2;}.cls-17{fill:#dfe1e8;}.cls-18{fill:#dfe1e9;}.cls-19{fill:#ededef;}.cls-20{fill:#ebecef;}.cls-21{fill:#f4f6fa;}.cls-22{fill:#f3f5f9;}.cls-23{fill:#afb9cb;}</style></defs><title>File</title><g id="lfimcB.tif"><path class="cls-1" d="M390,381.5c-.18,1.44.76,3.53-2,3.5-1,3.1-3.82,3.48-6.37,4.21a7.51,7.51,0,0,1-2,0q-110.59,0-221.19,0c-.95,0-2.38.5-2.74-.37-.45-1.1.91-1.78,1.72-2.41a82.31,82.31,0,0,0,12.66-12.38,5.86,5.86,0,0,1,5-2.29c7.58.06,15.16,0,22.74,0H368.25c1.23,0,2.51.29,3.64-.48a5,5,0,0,0,.56-.72,7.53,7.53,0,0,0,.33-3.45q0-51.72,0-103.45c0-5.59,0-5.59,5.38-4.6a64.29,64.29,0,0,0,9.42,1.12c1.93.07,2.7.78,2.69,2.9q-.1,58.22-.06,116.44A3.35,3.35,0,0,1,390,381.5Z" transform="translate(-2 0)"/><path class="cls-2" d="M373,372c-.9.92-2.05.49-3.08.49q-97.48,0-195,0a4.59,4.59,0,0,0-4,1.82A77.08,77.08,0,0,1,157,387.75c-.38.28-.7.64-1.34,1.25h2.22q111,0,222,0a10,10,0,0,0,8.16-4,5.52,5.52,0,0,1-4.69,4.47c-1.16.09-2.33,0-3.5,0q-110.48,0-221-.05a12.6,12.6,0,0,0-7.47,2.1,76.91,76.91,0,0,1-31.29,12.28,84.14,84.14,0,0,1-74.86-24.9A82.42,82.42,0,0,1,23.51,336.8,78.66,78.66,0,0,1,22.05,317a85.79,85.79,0,0,1,7.18-30.06,84.14,84.14,0,0,1,18.84-26.7,82.36,82.36,0,0,1,42.12-21.72A85.28,85.28,0,0,1,109,237a10.48,10.48,0,0,0,4.95,0c3.12-.43,6.09.41,9.09,1,2.52.51,5,1.08,7.5,1.83a6.22,6.22,0,0,1,.84.23A84.57,84.57,0,0,1,166.71,262c13.72,14.31,21.8,31.29,23.58,51.16a83.34,83.34,0,0,1-14.79,56.3c-.32.46-.79.88-.69,1.57.92.52,1.94.26,2.91.26l190.68,0C370,371.28,371.6,370.9,373,372Z" transform="translate(-2 0)"/><path class="cls-2" d="M390,381.5q0-58.62,0-117.24c0-3.25,0-3.14-3.22-3.29A40,40,0,0,1,376,259.38c-2.25-.74-2.55.08-2.54,2,.06,9.08,0,18.17,0,27.25q0,40,0,80c0,1,.37,2-.47,2.85-1.13-1.29-.71-2.86-.71-4.31q0-51.75,0-103.49c0-4.36,0-4.24-4.07-5.82-23.59-9.24-38.1-26.32-42.11-51.3-3.37-21,3-39.49,17.92-54.89a61.62,61.62,0,0,1,25.58-16,3.41,3.41,0,0,0,2.71-3.81c-.07-10.75-.05-21.5,0-32.25,0-1.27-.39-2.71,1-3.65,1.33.95,1,2.38,1,3.66,0,10,0,20,0,30,0,.75,0,1.5,0,2.25,0,1.67.68,2.15,2.33,1.79a55.57,55.57,0,0,1,10.88-1.38,6.4,6.4,0,0,1,2.22.24,3.57,3.57,0,0,1,.79.49,62.62,62.62,0,0,1,40.71,15.14c11.63,9.9,19.14,22.45,21.76,37.65,3.37,19.57-1.4,37.18-14,52.35A61.87,61.87,0,0,1,401.38,260a66.6,66.6,0,0,1-8.87,1c-1.72.07-2.06.73-2,2.26.06,7.5,0,15,0,22.49q0,46.36,0,92.71C390.47,379.44,390.88,380.58,390,381.5Z" transform="translate(-2 0)"/><path class="cls-3" d="M2,135a18.28,18.28,0,0,1,18-18,18,18,0,1,1-.07,36A18.27,18.27,0,0,1,2,135Z" transform="translate(-2 0)"/><path class="cls-3" d="M410,295a18,18,0,1,1,17.94,18A18.27,18.27,0,0,1,410,295Z" transform="translate(-2 0)"/><path class="cls-3" d="M502,119a18,18,0,1,1-17.93-18A18.28,18.28,0,0,1,502,119Z" transform="translate(-2 0)"/><path class="cls-3" d="M382.05,3A10.41,10.41,0,0,1,392,13.11a10,10,0,0,1-20-.1A10.41,10.41,0,0,1,382.05,3Z" transform="translate(-2 0)"/><path class="cls-3" d="M88,209a10.42,10.42,0,0,1-10,10,10,10,0,0,1-.07-20A10.41,10.41,0,0,1,88,209Z" transform="translate(-2 0)"/><path class="cls-3" d="M85.92,69A12.34,12.34,0,0,1,74,56.8C74,50.56,79.74,45,86.08,45A12.34,12.34,0,0,1,98,57.2C98,63.44,92.26,69,85.92,69Z" transform="translate(-2 0)"/><path class="cls-4" d="M114,237.5c-1.66-.21-3.41.5-5-.48,4.5,0,4.5,0,4.5-4.48q0-112.77,0-225.53c.78-2.62,1-2.76,2.83-1.51.08.33.2.74,0,1-2.07,2.61-1.52,5.67-1.52,8.62q0,108.68,0,217.35C114.8,234.15,115.21,236,114,237.5Z" transform="translate(-2 0)"/><path class="cls-5" d="M116,5c-1.64-.34-1.82,1.14-2.49,2,.06-3.27,4-7,7.5-7H306a7.12,7.12,0,0,1,6.52,4.5.52.52,0,0,1-.33.76c-1.08.28-1.68-.35-2.3-1.09a8,8,0,0,0-6.68-3q-66.12.13-132.25.06h-48.5c-1.49,0-3.05-.18-4,1.31a4.06,4.06,0,0,1-.62.5,3.27,3.27,0,0,0-1.53,1.76Z" transform="translate(-2 0)"/><path class="cls-6" d="M484.5,210c-.57-2.21-2-4-3-6-1.42-.26-2.57-1.27-4-1.5A31.74,31.74,0,0,0,474,201c-1.29-.27-2.17-.85-1.8-2.37a2.39,2.39,0,0,1,2.49-2.18,10,10,0,0,0,9.77-9.67c.12-2,1.12-3.42,2.76-3.6s2.6,1.36,2.92,3c.19,1,.51,1.91.66,2.88.8,5,5,6.06,8.86,7.25,1.56.48,2.57.91,2.81,2.53s-1.17,1.62-2,2.29c-1.8,1.37-3.92,1.64-5.93,2.33a1.5,1.5,0,0,1-1.41.16.72.72,0,0,1-.18-.66c.92-1.78,2.81-1.88,4.39-2.53a21,21,0,0,0,3-1.13,7.7,7.7,0,0,0-4.2-2.17c-3.72-.76-5.71-3.14-6.63-6.64a34.26,34.26,0,0,0-2-4.75,21.52,21.52,0,0,0-2.64,6,7,7,0,0,1-5.11,4.9,25.25,25.25,0,0,0-3.31,1.1c-.59.27-1.34.53-1.26,1.34s.82.71,1.33,1c1.77.87,3.89.65,5.52,2.1,3.27,2.91,4.34,6.72,4.86,10.82a1.14,1.14,0,0,1-.44.57C484.35,213.16,485.39,211.08,484.5,210Z" transform="translate(-2 0)"/><path class="cls-7" d="M22,201c-1.3-.27-2.17-.86-1.8-2.38a2.39,2.39,0,0,1,2.5-2.17,10,10,0,0,0,9.76-9.7c.12-2,1.17-3.41,2.8-3.57s2.5,1.47,2.91,3.09a27.25,27.25,0,0,0,1.44,4.68c.78,1.71,1.26,3.54,4,3.76,1.86.15,3.65,1.67,5.71,2.1.85.18,1.09,1.36,1.19,2.31s-.61,1.38-1.37,1.81a23.45,23.45,0,0,1-6.62,2.58,1.5,1.5,0,0,1-1.41.16.72.72,0,0,1-.18-.67c1.3-2.23,3.84-2.06,5.81-3,.54-.26,1.53-.07,1.4-1a1.56,1.56,0,0,0-1.48-1.18c-5.55-.54-8.62-3.71-9.83-9a5.46,5.46,0,0,0-1.17-2.45c0-.05-.15-.05-.48-.16A28.91,28.91,0,0,0,32.79,192a6.66,6.66,0,0,1-4.73,4.66c-1.11.35-2.24.64-3.32,1.06-.68.27-1.57.53-1.55,1.41s.91.84,1.5,1.1a17.17,17.17,0,0,0,2.88.78,6.61,6.61,0,0,1,5.12,6.93c-.61.51-.87,0-1.19-.4l-2-3.5c-1.42-.26-2.57-1.27-4-1.5h0A31.59,31.59,0,0,0,22,201Z" transform="translate(-2 0)"/><path class="cls-8" d="M88.5,121a7.46,7.46,0,0,1-3.07,1.58c-4.36.47-5.53,3.8-6.63,7.25-.38,1.2-.23,2.53-1.49,3.54-.77.62-1,2-2.4,1.51A3,3,0,0,1,72.59,132c.28-2.3-1-4-1.79-5.83-1-2.31-3.66-2.85-5.91-3.57A9.48,9.48,0,0,1,60.5,120c-.4-.58-.23-1,.4-1.19,2.3.7,4.54,1.59,6.83,2.36,3.9,1.3,5.27,4.77,6.4,8.3.18.55.2,1.15.41,1.7s.3,1,.93,1c.46,0,.62-.52.78-.9A23.92,23.92,0,0,0,77.75,127c.86-4,5.21-6.95,10.68-6.7A.46.46,0,0,1,88.5,121Z" transform="translate(-2 0)"/><path class="cls-9" d="M88.5,121v-.51c.06-1.79-.91-2.68-2.58-3a11,11,0,0,1-4.6-1.75c-2.08-1.47-2.9-3.71-3.63-6-.2-.63-.14-1.39-.52-1.89-.64-.84-.42-2.63-2-2.39-1.4.21-.86,1.75-1.21,2.69a3.32,3.32,0,0,1-.26.66c-1.5,1.88-1.29,4.63-3.2,6.31A37.24,37.24,0,0,1,61,119a1,1,0,0,0-.5,1c-.57-2.34,0-3.2,2.12-3.51a15.59,15.59,0,0,0,6.68-2.78c2.2-1.57,2.81-4.54,3.12-7.18.22-1.87,1-3.13,2.65-3.38s2.71,1.2,2.91,2.68c.33,2.45,2,4.3,2.57,6.6a2.12,2.12,0,0,0,1.71,1.65c2.37.23,4,2.13,6.36,2.47,1.55.22,1.8,1.55,1.84,2.83S89.64,121,88.5,121Z" transform="translate(-2 0)"/><path class="cls-9" d="M417,81c2.25-.65,4.41-1.56,6.59-2.37A5.12,5.12,0,0,0,427,75c.6-1.93,1.63-3.69,1.67-5.86a2.56,2.56,0,0,1,2.55-2c1.45,0,2.15,1.25,2.74,2.45a23.87,23.87,0,0,1,1.26,4.17c1.38,4.91,5.7,5.33,9.35,6.76a2.79,2.79,0,0,1,1.85,2.37c.2,1.09-.32,1.65-1.35,2.28C442.72,86.56,440,87,437.5,88a.81.81,0,0,1-.24-.64c1-1.75,2.89-2,4.6-2.55,1.13-.37,3-.5,3.05-1.6.13-1.36-1.69-1.42-2.79-1.9A28.07,28.07,0,0,0,437.88,80a3.17,3.17,0,0,1-.64-.3c-1.91-1.27-2.56-3.33-3.32-5.33a9.37,9.37,0,0,0-1-2.5,2.87,2.87,0,0,1-.32-.62c-.35-.66.06-1.9-1.1-1.9s-1.2,1.13-1.39,2c-.07.32-.11.64-.2,1a3.46,3.46,0,0,1-.29.67,8,8,0,0,0-1.22,2.66,5.72,5.72,0,0,1-4.77,4.63,10.48,10.48,0,0,0-2.71,1.14,4.89,4.89,0,0,1-1.58.27A2.89,2.89,0,0,1,417,81Z" transform="translate(-2 0)"/><path class="cls-10" d="M390.51,133l-.5,0c-1-1.12-.76-2.5-.77-3.81,0-12.37-.34-24.75.13-37.1a16.54,16.54,0,0,0-6.46-14.48c-1-.81-2.26-1.59-1.7-3.26l.29-.36H382a5.56,5.56,0,0,1,1.5,1.5,1.74,1.74,0,0,0,1,1A19.16,19.16,0,0,1,386,78c2.82,1.48,4.56,3.51,4.54,7C390.46,101,390.51,117,390.51,133Z" transform="translate(-2 0)"/><path class="cls-11" d="M349,41l.5.5a7.12,7.12,0,0,0,2,2l.5.5a18.4,18.4,0,0,1,1.5,1.5,34.43,34.43,0,0,1,7,7c.47.73,1.91.83,1.41,2.19-1,.53-1.68.15-2.42-.56Q349,44.09,339,33.63c-.68-.71-1.21-1.36-.76-2.39l.26-.26H339a18.44,18.44,0,0,1,1.5,1.5l.5.5c.15.15.3.3.45.44a8.13,8.13,0,0,1,1.11,1.11q.21.23.44.45a5.18,5.18,0,0,0,2,2,8.86,8.86,0,0,1,2,2l.5.5A18.72,18.72,0,0,1,349,41Z" transform="translate(-2 0)"/><path class="cls-8" d="M417,81h2.51c.85,1.2-1,1.3-.89,2.34,2.37,1.39,5.39,1.44,7.66,3.3A5.26,5.26,0,0,1,428.59,90c.38,2.17,1.82,4,1.95,6.25,0,.64.39,1.25.19,1.93l-.23.3a2.86,2.86,0,0,1-2-3.06c.07-1.3-.63-2.34-.93-3.49-.87-3.33-3.49-4.31-6.2-5.21a29.4,29.4,0,0,1-3.15-1.33C416,84.38,415.42,83,417,81Z" transform="translate(-2 0)"/><path class="cls-12" d="M367,59c1.63-.35,2,1.17,2.84,2,1.38,1.37,3.12,2.48,3.66,4.54a8.31,8.31,0,0,1,2,1.5q0,.25,0,.5a1.34,1.34,0,0,1-.63.44c-2.13.54-2.76-1.54-4-2.45-1.64-1.21-2.56-3.22-4.32-4.41a1.46,1.46,0,0,1-.23-2A.44.44,0,0,1,367,59Z" transform="translate(-2 0)"/><path class="cls-12" d="M312.5,5V4.5c3.24,1.43,5.27,4.06,7,7a8.31,8.31,0,0,1,2,1.5q0,.25,0,.5a1.29,1.29,0,0,1-.61.43c-2,.57-2.41-1.37-3.56-2.16a37.59,37.59,0,0,0-4.18-4.7C312.55,6.53,311.85,6,312.5,5Z" transform="translate(-2 0)"/><path class="cls-13" d="M367,59h-.52c-2.32.61-4.69-1.77-4.48-4.5-.48-.68-1.6-.89-1.5-2,1.63-.36,2,1.17,2.84,2C364.72,55.83,366.46,56.95,367,59Z" transform="translate(-2 0)"/><path class="cls-8" d="M437.5,87.5V88a21,21,0,0,0-3.08,7.65,3.27,3.27,0,0,1-3.92,2.85h0c2.23-2.1,2.83-5,3.78-7.74a9.32,9.32,0,0,1,1.61-3.07,2.18,2.18,0,0,1,.6-.42A1,1,0,0,1,437.5,87.5Z" transform="translate(-2 0)"/><path class="cls-7" d="M39.5,207.5c-.2.14-.54.25-.57.42a23.85,23.85,0,0,1-2.43,6.58c-.89.2-1.93.83-2.22-.75a21,21,0,0,0,3.61-7c.46-1.44.57-3.64,3.11-3.28h0C41.27,205.12,39.36,205.93,39.5,207.5Z" transform="translate(-2 0)"/><path class="cls-6" d="M491,208c-.83.7-.38,1.66-.5,2.5A3.63,3.63,0,0,1,489,213c-.59.36-.48,1-.5,1.5-.89.11-2.19,1.05-2-1h0a15.45,15.45,0,0,0,3.06-5.84,10.78,10.78,0,0,1,1.31-3.18c.49-.71,1-1.66,2.13-1h0C493.08,205.33,491.31,206.34,491,208Z" transform="translate(-2 0)"/><path class="cls-8" d="M34.5,213.49c.15,1.35,1.21.91,2,1-2.18.79-3.84-.15-3.92-2.57a12.34,12.34,0,0,0-1.08-4.43l1,.5c.52-.36,1.07-.22,1.22.28C34.24,210,35.2,211.62,34.5,213.49Z" transform="translate(-2 0)"/><path class="cls-10" d="M334,26.49c1.77.21,4.27,2.71,4.5,4.5l0,0c-2.38.66-4.73-1.42-4.76-4.21Z" transform="translate(-2 0)"/><path class="cls-5" d="M321,13.51h.51a6.11,6.11,0,0,1,2,2h0a6.1,6.1,0,0,1,2,2c1.88-.14,2.09,1.06,2,2.49l-.28.27c-.48.22-1.09.34-1.41,0-1.57-1.69-3.44-3.08-4.85-4.92A1.36,1.36,0,0,1,321,13.51Z" transform="translate(-2 0)"/><path class="cls-5" d="M332,24c1.88-.14,2.08,1.06,2,2.49l0,0c-2.35.57-7.09-4.17-6.5-6.5l0,0H328a5.56,5.56,0,0,1,1.5,1.5,1.74,1.74,0,0,0,1,1A19.41,19.41,0,0,1,332,24Z" transform="translate(-2 0)"/><path class="cls-5" d="M375,67.5h.51a6.11,6.11,0,0,1,2,2h0a6.11,6.11,0,0,1,2,2c1.88-.14,2.08,1.06,2,2.49l0,0c-.58.49-1.37.67-1.82.15-1.49-1.69-3.36-3-4.7-4.81A1.4,1.4,0,0,1,375,67.5Z" transform="translate(-2 0)"/><path class="cls-8" d="M486.5,213.5c.17,1.33,1.21.91,2,1-2.11.77-3.51,0-3.94-2.3a13,13,0,0,1-.05-2.2C485.87,210.77,484.95,212.84,486.5,213.5Z" transform="translate(-2 0)"/><path class="cls-8" d="M491,208c-.16-1.87,1.45-2.95,2-4.5h1.5C493,204.72,492.33,206.63,491,208Z" transform="translate(-2 0)"/><path class="cls-8" d="M39.5,207.5c-.35-1.65,1-2.67,1.5-4h1.5A15.71,15.71,0,0,0,39.5,207.5Z" transform="translate(-2 0)"/><path class="cls-8" d="M22,201c1.4,0,2.7.14,3.5,1.5A4,4,0,0,1,22,201Z" transform="translate(-2 0)"/><path class="cls-8" d="M474,201c1.4,0,2.7.14,3.5,1.5A4,4,0,0,1,474,201Z" transform="translate(-2 0)"/><path class="cls-13" d="M347,39c-1.32,0-1.52-1.15-2-2C346.43,36.9,347.1,37.56,347,39Z" transform="translate(-2 0)"/><path class="cls-13" d="M325.5,17.5a3.13,3.13,0,0,1-2-2Q325.65,15.35,325.5,17.5Z" transform="translate(-2 0)"/><path class="cls-13" d="M323.5,15.5a3.14,3.14,0,0,1-2-2Q323.65,13.35,323.5,15.5Z" transform="translate(-2 0)"/><path class="cls-13" d="M379.5,71.5a3.14,3.14,0,0,1-2-2Q379.65,69.35,379.5,71.5Z" transform="translate(-2 0)"/><path class="cls-13" d="M377.5,69.5a3.14,3.14,0,0,1-2-2Q377.65,67.35,377.5,69.5Z" transform="translate(-2 0)"/><path class="cls-8" d="M25.5,202.5c1.6-.22,2.75.79,4,1.5C27.9,204.22,26.76,203.21,25.5,202.5Z" transform="translate(-2 0)"/><path class="cls-8" d="M477.5,202.5c1.6-.22,2.74.79,4,1.5C479.9,204.22,478.76,203.21,477.5,202.5Z" transform="translate(-2 0)"/><path class="cls-8" d="M489,213l1.5-2.5C490.49,211.63,490.66,212.86,489,213Z" transform="translate(-2 0)"/><path class="cls-13" d="M321.5,13a2.36,2.36,0,0,1-2-1.5C320.58,11.45,321.43,11.7,321.5,13Z" transform="translate(-2 0)"/><path class="cls-5" d="M332,24a1.4,1.4,0,0,1-1.51-1.5C331.61,22.39,332.11,22.89,332,24Z" transform="translate(-2 0)"/><path class="cls-10" d="M340.5,32.5A1.41,1.41,0,0,1,339,31Q340.67,30.83,340.5,32.5Z" transform="translate(-2 0)"/><path class="cls-14" d="M349,41a1.41,1.41,0,0,1-1.5-1.5Q349.16,39.34,349,41Z" transform="translate(-2 0)"/><path class="cls-14" d="M351.5,43.5a2.08,2.08,0,0,1-2-2A3.15,3.15,0,0,1,351.5,43.5Z" transform="translate(-2 0)"/><path class="cls-14" d="M353.5,45.5A1.41,1.41,0,0,1,352,44Q353.67,43.83,353.5,45.5Z" transform="translate(-2 0)"/><path class="cls-5" d="M386,78a1.4,1.4,0,0,1-1.5-1.5C385.61,76.39,386.11,76.89,386,78Z" transform="translate(-2 0)"/><path class="cls-13" d="M375.5,67a2.36,2.36,0,0,1-2-1.5C374.58,65.45,375.43,65.7,375.5,67Z" transform="translate(-2 0)"/><path class="cls-13" d="M343,35h-.5a4,4,0,0,0-1.5-1.5V33Q343.16,32.85,343,35Z" transform="translate(-2 0)"/><path class="cls-5" d="M329.5,21.5c-1,0-1.14-.86-1.5-1.5C329.11,19.89,329.61,20.39,329.5,21.5Z" transform="translate(-2 0)"/><path class="cls-5" d="M383.5,75.5c-1,0-1.14-.86-1.5-1.5Q383.66,73.84,383.5,75.5Z" transform="translate(-2 0)"/><path class="cls-1" d="M375,67.5c.43,2,4.73,6.27,6.5,6.51a2.35,2.35,0,0,0,1,2.3,29.25,29.25,0,0,1,7,7.68,5.25,5.25,0,0,1,.52,3.14q0,22.93,0,45.86a48.35,48.35,0,0,0-14.49,1.77c-2,.6-2-.53-2-1.93q0-17,0-34c0-1,.38-2-.48-2.84h0c-1-.8-2.24-.5-3.38-.5-21.41,0-42.83-.15-64.24.09-4.86.05-10.39-4.66-10.16-10,.21-5,0-10,0-15q0-25.12,0-50.24c0-2.65,0-2.66-2.75-2.66H134c-3.3,0-3.3,0-3.3,3.35q0,108.23,0,216.46a6.25,6.25,0,0,1-.23,3c-5.45-1.28-10.83-2.93-16.5-3q0-112.85,0-225.7c0-1.95-.73-4.21,1.83-5.37.22-.1.11-.94.15-1.43h0c.47-.6.06-1.64,1-2h0C120.07.09,123.91.76,127.59.76l175.15,0a9.72,9.72,0,0,1,7.83,3.73A29,29,0,0,0,315.28,9c1,.73,1.24,1.89,2.22,2.47.65,0,1.38,0,1.47.88.15,1.36,1.16,1.07,2,1.13.43,2,4.73,6.27,6.5,6.51-.52,1.9,1.23,2.43,2.2,3.18,1.43,1.11,2,3.37,4.3,3.32A5.56,5.56,0,0,0,338.49,31c-.48,2.16,1.64,3,2.6,4,3.45,3.51,6.88,7.05,10.39,10.49,2.9,2.84,5.76,5.72,8.65,8.57.57.56,1.22.37,1.86.44,1,2,1.79,4.2,4.48,4.5-.64,2.12,1.86,1.82,2.4,3.14.92,2.23,3.48,3.11,4.69,5.18C373.72,67.58,374.5,67.46,375,67.5Z" transform="translate(-2 0)"/><path class="cls-15" d="M182,321a76,76,0,1,1-75.68-76A76,76,0,0,1,182,321Z" transform="translate(-2 0)"/><path class="cls-16" d="M130.5,240.5q0-109.62,0-219.24c0-3.77,0-3.77,3.65-3.77q79.12,0,158.24-.06c2.55,0,3.19.65,3.18,3.18-.11,21.08,0,42.16-.13,63.25a12.14,12.14,0,0,0,3,8.41A8.94,8.94,0,0,0,304.82,95q32.75,0,65.5,0c.93,0,2.28-.69,2.67,1H304.5c-5.73,0-9.5-3.73-9.5-9.39,0-21.91,0-43.83.05-65.74,0-2.32-.64-2.91-2.93-2.91q-79,.09-158,0c-2.62,0-3.18.89-3.18,3.33q.08,109.61,0,219.22Z" transform="translate(-2 0)"/><path class="cls-15" d="M390,253a56,56,0,1,1,56-55.7A56.08,56.08,0,0,1,390,253Z" transform="translate(-2 0)"/><path class="cls-15" d="M19.79,149A14,14,0,1,1,34,135.33,14.05,14.05,0,0,1,19.79,149Z" transform="translate(-2 0)"/><path class="cls-15" d="M428,309a14,14,0,1,1,14-13.84A14,14,0,0,1,428,309Z" transform="translate(-2 0)"/><path class="cls-15" d="M484,105a14,14,0,1,1-14,13.9A14,14,0,0,1,484,105Z" transform="translate(-2 0)"/><path class="cls-15" d="M86,65a8,8,0,1,1,8-8.05A7.89,7.89,0,0,1,86,65Z" transform="translate(-2 0)"/><path class="cls-4" d="M317.5,11.5c-2.76-2.39-5.17-5.14-7.79-7.67a11.64,11.64,0,0,0-6-2.82,12,12,0,0,0-2,0H125.06c-2.1,0-4.32-.49-5.91,1.6-.46.6-1.4.39-2.15.39C118.35.67,120.47.45,122.95.46q90.77.08,181.54,0c3,0,4.51,1.59,6,3.5a2.26,2.26,0,0,0,2,1.08c.11,2,2.47,2.17,3.29,3.82C316.17,9.6,316.93,10.59,317.5,11.5Z" transform="translate(-2 0)"/><path class="cls-4" d="M117,3l-1,2C116.1,4.21,115.66,3.16,117,3Z" transform="translate(-2 0)"/><path class="cls-17" d="M493,203.5c-2,.39-2.21,2.17-2.52,3.58-.42,2-1.68,3.51-2.23,5.38a1.45,1.45,0,0,1-1.74,1,22.82,22.82,0,0,0-3-8.81c-1-1.56-2.41-3.2-4.69-3.19a5.59,5.59,0,0,1-2.34-.77c-.9-.4-2.5-.06-2.35-1.64.13-1.41,1.53-1.68,2.66-2.13,1.68-.67,3.54-.78,5.13-1.79,2.52-1.59,2.23-4.61,3.61-6.78a11.57,11.57,0,0,0,.67-2.12c.23-.62.51-1.25,1.37-1.23s.84.82,1.06,1.41c.77,2.07,1.51,4.15,2.41,6.17a5.47,5.47,0,0,0,3.9,3.46,16.76,16.76,0,0,1,5.27,2c.53.33,1.42.42,1.19,1.33-.19.73-1,.82-1.58,1C497.42,201.27,494.71,201.27,493,203.5Z" transform="translate(-2 0)"/><path class="cls-17" d="M34.5,213.49c-1-1.71-.24-4.06-2-5.5-.7-4.12-2.31-5.81-6.18-6.54a8.42,8.42,0,0,1-1.85-.71c-.9-.41-2.48,0-2.4-1.61s1.53-1.69,2.62-2.15c1.67-.7,3.53-.8,5.13-1.77,2.55-1.55,2.24-4.61,3.65-6.75a6.05,6.05,0,0,0,.44-1.41c.28-.84.33-1.92,1.54-2s.93,1.15,1.24,1.82a23.68,23.68,0,0,1,1.69,4.31c1,4.06,4.22,5.16,7.78,5.79.63.11,1.43-.14,1.79.58s1.68.85,1.38,1.87-1.31.79-2.05,1.1c-2.14.88-4.77.75-6.28,3-2,.38-2.21,2.17-2.52,3.58-.42,2-1.68,3.51-2.23,5.38A1.45,1.45,0,0,1,34.5,213.49Z" transform="translate(-2 0)"/><path class="cls-18" d="M81.5,115.5c2.22,1.31,5.07.83,7.16,2.71,1.23,1.1.56,1.57-.16,2.28A37.13,37.13,0,0,0,83,121.88a7.72,7.72,0,0,0-4.94,6.36c-.2,1.52-1.22,2.66-1.54,4.1a1.26,1.26,0,0,1-1.23,1.06c-.74,0-1-.62-1.12-1.15-.42-2.31-1.53-4.38-2.23-6.59-.8-2.52-3.05-3.31-5.16-4.12S62.6,120.61,61,119c2.3-1.87,5.19-2.41,7.85-3.45.59-.23,1.1-.32,1.15-1a2.45,2.45,0,0,0,2-2.17,19.68,19.68,0,0,1,1.53-3.83,1.19,1.19,0,0,0,.24-.42c.35-1,0-2.69,1.56-2.72s1.66,1.79,2.12,2.89C78.48,110.85,78.78,113.84,81.5,115.5Z" transform="translate(-2 0)"/><path class="cls-19" d="M81.5,115.5a4.22,4.22,0,0,1-3.05-3.18,50.25,50.25,0,0,0-1.93-5.23c-.23-.56-.36-1.44-1.2-1.36-.66.06-.7.8-.92,1.33a9.29,9.29,0,0,1-.9,1.44,17.17,17.17,0,0,1,.06-2.22,1.91,1.91,0,0,1,1.81-1.73c1-.1,1.31.56,1.69,1.41a21.89,21.89,0,0,1,1.32,3.88A14.48,14.48,0,0,0,81.5,115.5Z" transform="translate(-2 0)"/><path class="cls-19" d="M73.5,108.5c-.08,2.86-1.67,5.59-3.5,6a4.28,4.28,0,0,0,1.77-3C72,110.41,72.25,109.13,73.5,108.5Z" transform="translate(-2 0)"/><path class="cls-17" d="M428,90c-.52-2.82-3-3.44-5.1-4.45-1.31-.64-2.85-.78-4.22-1.31-.54-.21-1.37-.52-1.37-1.27s.77-.78,1.31-.93a1.09,1.09,0,0,0,.89-1H421c1.95-1.14,4.6-.78,6.11-2.87,1.22-1.7,1.33-3.87,2.4-5.63h0a1.93,1.93,0,0,0,.34-.89c.29-1,.22-2.32,1.65-2.31s.95,1.49,1.52,2.19h0a26.54,26.54,0,0,1,1.65,4.23,6.42,6.42,0,0,0,2.85,3.77h0c2.05.56,4,1.54,6,2.1A1.52,1.52,0,0,1,444.73,83c0,.67-.53.93-1,1.25a18.4,18.4,0,0,1-4,1.41,11,11,0,0,0-3.22,1.82c-2.07,1.37-2,3.86-3,5.79-.14.27,0,.73-.18,1-.77.9-.54,2.9-2.09,2.73s-1.42-1.86-1.46-3C429.74,92.33,427.91,91.62,428,90Z" transform="translate(-2 0)"/><path class="cls-20" d="M436.5,87.5a3.76,3.76,0,0,1,3.24-2.22,17.81,17.81,0,0,0,3.71-1.34c.49-.18.94-.44.85-1s-.56-.72-1.06-.88a22.11,22.11,0,0,1-5.74-2.52,16.64,16.64,0,0,1,7.36,2.38c.58.33,1.17.72,1,1.53s-.84.84-1.44,1.13c-2.28,1.1-5,1.07-7,3Z" transform="translate(-2 0)"/><path class="cls-20" d="M429.5,72.5c-.16,5.11-3.18,8.13-8.5,8.5.45-1.12,1.59-1.21,2.48-1.37a4.91,4.91,0,0,0,4.26-4C428,74.46,428.22,73.14,429.5,72.5Z" transform="translate(-2 0)"/><path class="cls-20" d="M437.5,79.5a4,4,0,0,1-3.07-3.43c-.25-1.59-1.87-2.76-1.42-4.57,1.46.17,1,1.52,1.32,2.32A15.76,15.76,0,0,0,437.5,79.5Z" transform="translate(-2 0)"/><path class="cls-20" d="M433,71.5c-1.48-2-1.48-2-3.5,1,0-.33,0-.66,0-1,.11-1.33.22-2.87,1.92-2.93C433.52,68.51,432.86,70.3,433,71.5Z" transform="translate(-2 0)"/><path class="cls-14" d="M341,33.5a1.41,1.41,0,0,1,1.5,1.5A3.12,3.12,0,0,1,341,33.5Z" transform="translate(-2 0)"/><path class="cls-20" d="M428,90a10.44,10.44,0,0,1,2.43,5.49c.08.49.18,1.11.74,1.17s1-.51,1.21-1.06c.57-1.68,1.07-3.38,1.63-5.07.44-1.32.82-2.71,2.49-3-1.91,2.77-2.15,6.23-3.81,9.11-.52.9-.74,2.09-2.19,1.88Z" transform="translate(-2 0)"/><path class="cls-13" d="M349.51,67.5c.41.06,1,0,1.2.2,2.45,2.46,4.86,5,7.27,7.48.11.11.1.34.2.45.61.63,2.3.61,1.57,2-.55,1-1.87.87-3,.87q-20.72,0-41.45,0c-.8,0-1.69.27-2.35-.48a.5.5,0,0,1,.13-.74c1.23-.69,2.59-.48,3.9-.49q17.8,0,35.59,0a6.52,6.52,0,0,0,2.89-.28c-.91-1.83-2.69-2.84-3.91-4.3a35.28,35.28,0,0,0-3.72-3.67c-.62-.55-1.33-1-1.19-2C348.26,65.06,348.76,66.62,349.51,67.5Z" transform="translate(-2 0)"/><path class="cls-21" d="M313,77.5V78c-.77-.65-.49-1.54-.49-2.34q0-21.09,0-42.19a8.41,8.41,0,0,1,.06-1.74c.29-1.33,1.41-1.48,2-.59,2.4,3.86,6.24,6.3,9.16,9.66a39.76,39.76,0,0,0,7.45,7.27A2,2,0,0,1,332,50a.58.58,0,0,1-.32.69c-2.2.06-3.39-1.63-4.65-3-3.55-3.72-7.27-7.28-10.78-11a7.62,7.62,0,0,0-2.13-1.84,5,5,0,0,0-.39,2.95c0,12,0,24.08,0,36.12C313.7,75.15,313.92,76.44,313,77.5Z" transform="translate(-2 0)"/><path class="cls-5" d="M332,50.5V50c2.27-.14,2.55,2.3,4.14,3.24,2.5,1.49,3.77,4.58,6.39,6.18.55.33.45,1,.48,1.59l-.29.17-.34,0A9.38,9.38,0,0,0,340,59.9c-2.19-1-3.41-2.93-4.59-4.89A2.06,2.06,0,0,0,334,53.43a2.11,2.11,0,0,1-.8-.59,10.78,10.78,0,0,1-1.14-2C332,50.72,332,50.61,332,50.5Z" transform="translate(-2 0)"/><path class="cls-21" d="M342.5,61H343c1.78-.36,2.63,1.7,2.94,2.25.93,1.73,3.55,1.95,3.56,4.25L347,66A4.91,4.91,0,0,1,342.5,61Z" transform="translate(-2 0)"/><path class="cls-2" d="M34,321a72,72,0,1,1,71.45,72A72,72,0,0,1,34,321Z" transform="translate(-2 0)"/><path class="cls-2" d="M442,197.13c0,28.31-23.54,52.07-52.38,51.88a52,52,0,1,1,1-104C418.52,145.29,442.1,168.46,442,197.13Z" transform="translate(-2 0)"/><path class="cls-15" d="M342.5,61a8.22,8.22,0,0,0,4.5,5c-.21,1.83,1.69,2,2.52,3a93.75,93.75,0,0,0,7.12,7.06c.29.28.73.48.58,1s-.65.42-1,.44-1,0-1.5,0H313q0-21,0-41.94c0-.77-.48-1.88.46-2.24.79-.31,1.12.75,1.62,1.27C319.4,39,323.87,43.22,328,47.8c1,1.06,2.13,2.62,4,2.7h0c.46.7.55,1.67,1.5,2l.5.5a6.94,6.94,0,0,0,2,1.5c1.09,2,2.22,4,4.5,5a5.22,5.22,0,0,0,2,1.5Z" transform="translate(-2 0)"/><path class="cls-21" d="M336,54.5c-1.07,0-2.15.09-2-1.5C335.18,52.81,335.63,53.6,336,54.5Z" transform="translate(-2 0)"/><path class="cls-21" d="M342.5,61c-1.07,0-2.15.09-2-1.5A2.35,2.35,0,0,1,342.5,61Z" transform="translate(-2 0)"/><path class="cls-21" d="M333.5,52.5c-1.59.15-1.54-.93-1.5-2C332.91,50.86,333.09,51.77,333.5,52.5Z" transform="translate(-2 0)"/><path class="cls-22" d="M106,385c-35.09.1-64.17-28.9-64-64.3A64.34,64.34,0,0,1,106.61,257c34.41.28,63.86,28.85,63.39,64.94C169.57,356.2,141.24,385,106,385Z" transform="translate(-2 0)"/><path class="cls-22" d="M434,197A44,44,0,1,1,390.41,153,44,44,0,0,1,434,197Z" transform="translate(-2 0)"/><path class="cls-23" d="M106.44,321.93c10.95-.16,15.5,10,12.89,19.32-2,7.27-7.58,9.49-14,9.41-3.15,0-6.1-.62-8.26-3.3a8.83,8.83,0,0,1-2.16-4.92c-.15-1.81.14-3.46,1.91-4.19a3.59,3.59,0,0,1,4.53,1,3.77,3.77,0,0,1,0,4.88c-1.85,2-.17,2.3,1,2.72,5.38,1.87,9.83-.61,11.18-6.17a20.2,20.2,0,0,0,0-8.88c-1.16-5.81-6.67-8.68-11.94-5.36-.55.35-1.26,1.33-1.88.66s.19-1.54.65-2.18c3.27-4.5,6.58-9,9.87-13.47.37-.51.66-1.08,1.19-2-5.42,0-10.47,0-15.51,0-.92,0-1.42.36-1.39,1.32.19,5.73-.49,11.49.4,17.19.63,4,3.43,5.08,6.61,2.63.52-.4.94-.94,1.44-1.38s1.07-1.65,2-1,.61,1.79.19,2.71c-1.55,3.37-5,4.77-9.83,4-3.84-.57-5.87-2.72-6.41-6.52-.78-5.47-.29-11-.35-16.45,0-1.92-.47-2.77-2.51-2.54-1.4.16-2.83,0-4.24,0-1.17,0-1.86-.19-1.88-1.62s.49-1.94,1.89-1.86,3-.08,4.49,0c1.81.16,2.36-.62,2.21-2.31-.22-2.41.62-5-1.56-7.05-.84-.79-.24-1.6.85-1.65a25,25,0,0,1,4.49.06,2.33,2.33,0,0,1,2.22,2.75c-.12,1.91.11,3.84-.06,5.74-.19,2.08.69,2.51,2.58,2.47,5.91-.11,11.83,0,17.74,0,.58,0,1.17,0,1.75,0A3.31,3.31,0,0,1,119,308c.53.94-.66,1.37-1.17,1.92C114.18,313.83,110.46,317.71,106.44,321.93Z" transform="translate(-2 0)"/><path class="cls-23" d="M383.08,198l10.09-12.49H381.11c-1,0-1.16.74-1.15,1.55q0,5.75,0,11.49a2.64,2.64,0,0,0,1.89,2.65c1.43.54,2.52-.21,3.68-.91.84-.51,1.46-2.6,2.62-1.13,1,1.24-.53,2.52-1.54,3.21-2.79,1.91-5.93,1.67-8.82.42-2.42-1-2.87-3.43-2.82-5.92.07-3.08-.05-6.16,0-9.24.05-1.59-.41-2.32-2.1-2.17-1.24.11-2.5,0-3.74,0-.84,0-1.17-.45-1.17-1.26s.41-1.2,1.23-1.18a7.94,7.94,0,0,0,1.74,0c1.3-.27,3.31.88,3.78-.72s.88-3.76-.67-5.42c-1-1.07-.78-1.79.8-1.82.75,0,1.5,0,2.25,0,1.86.08,2.83.84,2.83,2.93,0,5,.09,5,5.12,5,3.58,0,7.16,0,10.74,0a4.21,4.21,0,0,1,1.95.22c1.14.65,2.09,1.32.41,2.71-3.12,2.59-6,5.41-9.36,8.42,4.79-.2,8.35,1.27,10.18,5.38a11,11,0,0,1-1,11.15c-3.07,4.49-12.22,5.46-16.18,1.76a5.18,5.18,0,0,1-1.91-3.65,2.81,2.81,0,0,1,1.62-3.06,2.61,2.61,0,0,1,3.22.41,2.72,2.72,0,0,1,.45,3.46c-1,1.56-.45,1.81,1,2.3,4.22,1.42,9.21-.82,9-8-.07-2.2-.36-4.48-2.33-6.09a5.85,5.85,0,0,0-6.26-1.11A7.58,7.58,0,0,1,383.08,198Z" transform="translate(-2 0)"/></g></svg>