<?xml version="1.0" encoding="UTF-8"?>
<svg width="246px" height="246px" viewBox="0 0 246 246" version="1.1" xmlns="http://www.w3.org/2000/svg" xmlns:xlink="http://www.w3.org/1999/xlink">
    <!-- Generator: Sketch 52.2 (67145) - http://www.bohemiancoding.com/sketch -->
    <title>60</title>
    <desc>Created with Sketch.</desc>
    <defs>
        <circle id="path-1" cx="123" cy="123" r="123"></circle>
        <linearGradient x1="50%" y1="0%" x2="50%" y2="100%" id="linearGradient-3">
            <stop stop-color="#F4F6FD" offset="0%"></stop>
            <stop stop-color="#FFFFFF" offset="100%"></stop>
        </linearGradient>
        <linearGradient x1="50%" y1="66.9587311%" x2="-19.1326685%" y2="91.6027377%" id="linearGradient-4">
            <stop stop-color="#F5F7FD" offset="0%"></stop>
            <stop stop-color="#D7E2FA" offset="100%"></stop>
        </linearGradient>
        <linearGradient x1="50%" y1="0%" x2="50%" y2="100%" id="linearGradient-5">
            <stop stop-color="#EEF3FD" offset="0%"></stop>
            <stop stop-color="#D8E3FB" offset="100%"></stop>
        </linearGradient>
    </defs>
    <g id="60" stroke="none" stroke-width="1" fill="none" fill-rule="evenodd">
        <mask id="mask-2" fill="white">
            <use xlink:href="#path-1"></use>
        </mask>
        <use id="Oval" fill="#DCE2F1" fill-rule="nonzero" xlink:href="#path-1"></use>
        <g id="Ledger" mask="url(#mask-2)">
            <g transform="translate(258.500000, 122.500000) rotate(-90.000000) translate(-258.500000, -122.500000) translate(222.000000, -87.000000)" id="Device">
                <g transform="translate(36.500000, 209.500000) rotate(90.000000) translate(-36.500000, -209.500000) translate(-173.000000, 173.000000)">
                    <g id="Group-4" transform="translate(0.500000, 0.500000)" stroke="#5571A7">
                        <path d="M153.446666,0.75 L124.437165,0.75 L124.437165,3.14784925 L56.970677,3.14784925 L56.970677,0.75 L27.9611763,0.75 L27.9611763,3.14784925 L0.75,3.14784925 L0.75,71.1854774 L202.921532,71.1854774 L202.921532,3.14784925 L153.446666,3.14784925 L153.446666,0.75 Z" id="Combined-Shape" stroke-width="1.5" fill="#FFFFFF"></path>
                        <path d="M38.1807306,21.8306432 L38.1807306,52.5026834 L143.227111,52.5026834 L143.227111,21.8306432 L38.1807306,21.8306432 Z" id="Rectangle-10" stroke-width="0.5" fill="url(#linearGradient-3)"></path>
                    </g>
                    <g id="Group-5" transform="translate(171.000000, 2.000000)" stroke="#5571A7">
                        <g id="Group-2" fill="url(#linearGradient-4)" stroke-width="0.5">
                            <path d="M33.2490232,70.3211964 C14.6430626,68.8967057 0,53.7233904 0,35.2152406 C0,16.7070909 14.6430626,1.53377559 33.2490232,0.109284875 L33.2490232,0 L247.647897,0 L247.647897,70.4304813 L33.2490232,70.4304813 L33.2490232,70.3211964 Z" id="Combined-Shape"></path>
                        </g>
                        <ellipse id="Oval-8" stroke-width="1.5" fill="url(#linearGradient-5)" cx="34.2316182" cy="35.1214529" rx="19.4590276" ry="19.0310482"></ellipse>
                    </g>
                </g>
            </g>
        </g>
    </g>
</svg>