<!-- Generated by IcoMoon.io -->
<svg version="1.1" xmlns="http://www.w3.org/2000/svg" width="32" height="32" viewBox="0 0 32 32">
<title>tz</title>
<path d="M25.29 9.22l-6.56 6.56c0.33-0.070 0.65-0.17 1-0.22 0.108-0.013 0.233-0.020 0.36-0.020 0.436 0 0.851 0.084 1.232 0.238l-0.022-0.008c1.083 0.339 1.998 0.954 2.694 1.762l0.006 0.008c0.655 0.806 1.128 1.785 1.343 2.858l0.007 0.042c0.116 0.526 0.182 1.13 0.182 1.75 0 0.899-0.14 1.766-0.399 2.58l0.017-0.060c-0.557 1.989-2.125 3.511-4.101 3.992l-0.039 0.008c-0.687 0.212-1.477 0.334-2.295 0.334s-1.608-0.122-2.352-0.349l0.057 0.015c-1.587-0.449-2.771-1.781-2.998-3.418l-0.002-0.022c-0.038-0.143-0.060-0.308-0.060-0.477 0-0.421 0.135-0.811 0.364-1.128l-0.004 0.006c0.322-0.44 0.836-0.722 1.416-0.722 0.15 0 0.296 0.019 0.436 0.055l-0.012-0.003c0.828 0.108 1.461 0.808 1.461 1.657 0 0.093-0.008 0.184-0.022 0.273l0.001-0.010c-0.025 0.707-0.479 1.303-1.108 1.536l-0.012 0.004c0.17 0.169 0.36 0.318 0.567 0.442l0.013 0.008c0.611 0.33 1.337 0.524 2.108 0.524 0.829 0 1.606-0.224 2.273-0.616l-0.021 0.012c0.71-0.463 1.236-1.158 1.474-1.975l0.006-0.025c0.267-0.8 0.42-1.722 0.42-2.679 0-0.466-0.036-0.924-0.107-1.37l0.006 0.049c-0.109-0.815-0.367-1.551-0.745-2.209l0.015 0.029c-0.618-1-1.709-1.656-2.953-1.656-0.541 0-1.052 0.124-1.508 0.345l0.021-0.009c-0.51 0.27-1 0.53-1.56 0.79l-0.19 0.090c-0.016-0.076-0.026-0.163-0.026-0.253 0-0.281 0.092-0.541 0.248-0.751l-0.002 0.003c1.86-2.44 3.69-4.9 5.53-7.36l0.11-0.15h-8.12c0 0.060 0 0.13 0 0.19q0 3.93 0 7.85c-0.001 0.029-0.001 0.063-0.001 0.097 0 0.416 0.070 0.816 0.199 1.188l-0.008-0.026c0.214 0.68 0.839 1.165 1.577 1.165 0.15 0 0.296-0.020 0.434-0.058l-0.012 0.003c0.643-0.163 1.188-0.516 1.586-0.995l0.004-0.005c0.174-0.181 0.335-0.376 0.48-0.584l0.010-0.016c0.071-0.153 0.223-0.257 0.4-0.257s0.329 0.104 0.399 0.254l0.001 0.003c0.078 0.132 0.125 0.29 0.125 0.46s-0.046 0.328-0.127 0.464l0.002-0.004c-0.468 1.16-1.49 2.009-2.728 2.227l-0.022 0.003c-0.292 0.051-0.627 0.080-0.97 0.080s-0.678-0.029-1.005-0.085l0.035 0.005c-0.5-0.071-0.948-0.186-1.376-0.345l0.046 0.015c-0.949-0.413-1.634-1.277-1.788-2.314l-0.002-0.016c-0.076-0.359-0.12-0.772-0.12-1.195 0-0.016 0-0.032 0-0.048v0.002c0-2.59 0-5.18 0-7.78v-0.27h-4.15v-1.52h4.14c0-0.080 0-0.14 0-0.2 0-1 0-2.070 0-3.11-0.005-0.104-0.046-0.198-0.11-0.27l0 0c-0.24-0.26-0.49-0.49-0.73-0.75-0.056-0.064-0.093-0.147-0.1-0.239l-0-0.001c0-0.2 0-0.4 0-0.63h2.6c0.121 0.004 0.233 0.033 0.335 0.082l-0.005-0.002c0.23 0.11 0.45 0.24 0.69 0.35 0.119 0.038 0.203 0.148 0.203 0.277 0 0.015-0.001 0.030-0.003 0.045l0-0.002c0 1.4 0 2.79 0 4.19v0.24h0.24l10.31-0.020c0.006-0 0.012-0 0.019-0 0.132 0 0.25 0.058 0.331 0.15l0 0.001c0.31 0.3 0.65 0.6 0.94 0.92z"></path>
</svg>
