<?xml version="1.0" encoding="utf-8"?>
<!-- Generator: Adobe Illustrator 21.0.0, SVG Export Plug-In . SVG Version: 6.00 Build 0)  -->
<svg version="1.1" id="Слой_1" xmlns="http://www.w3.org/2000/svg" xmlns:xlink="http://www.w3.org/1999/xlink" x="0px" y="0px"
	 viewBox="0 0 1101 562" style="enable-background:new 0 0 1101 562;" xml:space="preserve">
<style type="text/css">
	.st0{fill:#E8EBF4;}
	.st1{fill:#D7DDEA;}
	.st2{fill:#CCD5EA;}
	.st3{fill:#F3F3F6;}
	.st4{fill:#F5F6F7;}
	.st5{fill:#F5F6F8;}
	.st6{fill:#F4F5F8;}
	.st7{fill:#F6F6F6;}
	.st8{fill:#E8E8ED;}
	.st9{fill:#F7F7FA;}
	.st10{fill:#F2F3F5;}
	.st11{fill:#F5F6F9;}
	.st12{fill:#EAEBEE;}
	.st13{fill:#E1E6F1;}
	.st14{fill:#E1E5F1;}
	.st15{fill:#F3F5F9;}
	.st16{fill:#FEFEFE;}
	.st17{fill:#DFE1E8;}
	.st18{fill:#E9EAEC;}
	.st19{fill:#DFE0E8;}
	.st20{fill:#E8E9EE;}
	.st21{fill:#E9E9EB;}
	.st22{fill:#EAEBEC;}
	.st23{fill:#EAEBF0;}
	.st24{fill:#E7E8EC;}
	.st25{fill:#E7E8ED;}
	.st26{fill:#DAE0EE;}
	.st27{fill:#D9DFEE;}
	.st28{fill:#FBFCFD;}
	.st29{fill:#FDFDFE;}
	.st30{fill:#AFB9CB;}
	.st31{fill:#D2D9EB;}
	.st32{fill:#CFD7EA;}
	.st33{fill:#D4DBEC;}
	.st34{fill:#DFE4F1;}
	.st35{fill:#BFCAE4;}
	.st36{fill:#D8DEEE;}
	.st37{fill:#DBE1EF;}
	.st38{fill:#FDFEFE;}
	.st39{fill:#CED6E9;}
	.st40{fill:#C5CFE6;}
	.st41{fill:#D3DAEB;}
	.st42{fill:#B7C4E0;}
	.st43{fill:#E8ECF4;}
	.st44{fill:#E1E6F2;}
	.st45{fill:#D2DAEB;}
	.st46{fill:#D0D8EA;}
	.st47{fill:#E0E5F2;}
	.st48{fill:#C6D0E7;}
	.st49{fill:#C7D1E7;}
	.st50{fill:#BCC8E2;}
	.st51{fill:#BBC7E2;}
	.st52{fill:#D7DEED;}
	.st53{fill:#E6E9F4;}
	.st54{fill:#E4E8F3;}
</style>
<path class="st0" d="M889,305.5c0,18.7,0,37.3,0,56c-0.7,0.8-1.6,0.7-2.6,0.7c-1.2,0-2.3,0-3.5,0c-160.4,0-320.8,0-481.2,0
	c-19,0-33.1,8.8-42.5,25.2c-1.4,2.5-2.2,5.2-3.3,7.8c-1.1,2.6-1.7,3-4.3,2c-9.7-3.5-19.6-5.3-29.9-5c-19.4,0.4-36.8,6.6-51.7,19.2
	c-17.5,14.7-27.7,33.5-29.8,56.4c-2.1,22.7,4.3,43,18.7,60.7c8.1,10,18.3,17.4,29.9,23c0.9,0.4,2.7,0.4,1.9,2.4
	c-1.2,0.6-2.4,0.5-3.7,0.5c-31.3,0-62.7,0-94,0c-1.4,0-2.9,0.3-4-0.8c0-67.6,0-135.2,0-202.7c0-57.7,0-115.3,0-173
	c0-14.8,4.5-28.1,13.7-39.7c10.3-12.9,23.5-21,40-23.6c3.6-0.6,7.2-0.9,10.9-0.9c189.6,0,379.2,0,568.7,0c16.4,0,31.1,4.4,43.5,14.9
	c11.9,10.1,19.6,22.9,22.1,38.5c0.8,4.9,1,9.7,1,14.6c-0.7,0.8-1.6,0.7-2.6,0.7c-1.1,0-2.2,0-3.2,0c-97.7,0-195.5,0-293.2,0
	c-2.6,0-5.2,0.1-7.7,0.5c-2.8,0.5-3.4,0.1-4.4-2.4c-3.6-9-9-16.7-16.1-23.2c-10.2-9.4-22.1-14.9-35.9-16.4
	c-13-1.4-25.4,0.7-36.7,7.1c-19.1,10.8-30.5,27-32.9,49c-1.9,17.2,2.6,32.6,13.4,46c11,13.6,25.2,21.7,42.8,23.5
	c8.9,1,17.6,0,26.1-2.7c2.8-0.9,3.4-0.5,4,2.6c2.8,14.1,10.4,24.9,22.8,32.2c7.2,4.2,15,6.4,23.4,6.4c98.5,0,197,0,295.4,0
	C885.8,304.8,887.6,304.3,889,305.5z"/>
<path class="st1" d="M291,553.5c-4.4-2.5-9-4.6-13.3-7.3c-7.5-4.9-14.2-10.7-19.8-17.6c-6.5-8-11.5-16.9-14.7-26.7
	c-2-6.2-3.2-12.5-3.8-18.9c-1.4-13.4,0.7-26.3,5.6-38.7c3.3-8.5,8.2-16.1,14-23.1c7.3-8.8,16.2-15.5,26.2-20.7
	c8-4.1,16.6-6.7,25.5-8c5-0.7,10.1-1.2,15.1-0.9c8.9,0.5,17.6,1.9,25.9,5.2c1.8,0.7,2.7,0.7,3.4-1.5c3.9-12.6,11.9-22,23.4-28.2
	c6.5-3.5,13.6-5.5,21-5.5c162,0,323.9,0,485.9,0c1.2,0,2.3,0,3.5,0c13.3,0,26.7-0.2,40,0.1c19.2,0.3,33.4,9.3,42.7,25.9
	c3.7,6.6,5.4,13.9,5.4,21.5c0,17.2,0.1,34.5,0,51.7c-0.1,19.4-8.9,33.8-25.7,43.3c-6.5,3.7-13.7,5.4-21.2,5.5c-13.7,0-27.3,0-41,0
	c-0.8,0.7-1.8,0.7-2.8,0.8c-1.2,0-2.5,0-3.7,0c-158.8,0-317.6,0-476.4-0.1c-4,0-6.3,1.1-8.1,4.8c-7.1,13.8-17.4,24.7-30.7,32.8
	c-3.7,2.3-7.5,4.4-11.5,5.9c-4.3,1.7-8.6,3.2-13.2,3.8c-4.5,0.5-8.9,1.5-13.5,1.8c-4.1,0.3-8.1,0.3-12.1,0c-4.5-0.3-9-1.3-13.5-1.8
	c-3.4-0.5-6.7-1.3-9.9-2.6C292.6,554.5,291.6,554.3,291,553.5z"/>
<path class="st0" d="M355,553.5c4.6-2.5,9.3-4.7,13.7-7.6c7.5-4.9,14.1-10.8,19.7-17.8c4.3-5.4,7.9-11.3,10.9-17.5
	c0.4-0.9,0.9-1.3,1.9-1.2c0.4,0,0.8,0,1.2,0c161.7,0,323.4,0,485.1,0c0.5,0,1,0,1.5,0c0,14.7,0,29.3,0,44c-0.7,0.8-1.6,0.8-2.5,0.8
	c-0.9,0.1-1.8,0-2.7,0c-174.5,0-349,0-523.4,0C358.5,554.3,356.6,554.8,355,553.5z"/>
<path class="st1" d="M889,305.5c-100.3,0-200.6,0-301-0.1c-12.4,0-23.1-4.7-32.1-13.2c-6.9-6.5-11.3-14.4-13.7-23.6
	c-0.4-1.6,0.2-4.1-1.4-4.7c-1.2-0.5-3.1,0.8-4.7,1.2c-7.6,1.9-15.2,2.7-23.1,2c-13.3-1.1-25-6.1-35.1-14.5
	c-8.7-7.2-15.2-16.2-19.1-27c-3.1-8.4-4.5-17-3.9-25.9c0.9-13.4,5.4-25.5,14-36.1c10.6-13.1,24.3-21.2,40.9-23.5
	c17.7-2.5,34,1.8,48.2,12.8c9.3,7.2,16.3,16.3,20.5,27.4c0.6,1.5,1.1,2.3,3,1.8c2.4-0.7,4.9-0.7,7.4-0.7c100,0,200,0,300,0
	c43,0,86-0.2,129,0.1c17.5,0.1,30.9,8.4,40.2,23.3c4.9,7.8,7,16.4,6.9,25.6c-0.1,9.2,0.2,18.5-0.1,27.7
	c-0.5,17.7-8.5,31.3-23.6,40.5c-7.7,4.7-16.1,6.7-25.1,6.7C973.8,305.5,931.4,305.5,889,305.5z"/>
<path class="st2" d="M355,553.5c177.3,0,354.7,0,532,0c0.7,0,1.3,0,2,0c69.3,0,138.6,0,208,0c0.7,0,1.5,0.1,2.2,0
	c1.5-0.1,1.8,0.6,1.8,1.9c0,1.4-0.3,2.3-1.9,2.1c-0.5-0.1-1,0-1.5,0c-250.9,0-501.7,0-752.6,0c-0.8,0-1.7,0-2.5,0
	C346.7,556.1,350.8,554.8,355,553.5z"/>
<path class="st2" d="M291,553.5c4.2,1.3,8.3,2.7,12.5,4c-30.2,0-60.3,0-90.5,0c-69.6,0-139.3,0-208.9,0c-1.1,0-2.8,0.9-3.1-1.3
	c-0.4-2.4,0.8-2.7,2.8-2.7c58.1,0,116.1,0,174.2,0c3.7,0,7.3,0,11,0C223,553.5,257,553.5,291,553.5z"/>
<path class="st0" d="M977,107.5c-9.7,0-18-8.2-18-17.9c0-9.8,8.3-18.1,18.1-18.1c9.7,0,17.9,8.3,17.9,18
	C995,99.2,986.7,107.5,977,107.5z"/>
<path class="st0" d="M125,355.5c-9.7,0-18-8.3-18-17.9c0-9.8,8.3-18.1,18.1-18c9.7,0,17.9,8.4,17.9,18.1
	C143,347.3,134.7,355.5,125,355.5z"/>
<path class="st0" d="M229,39.5c9.7,0,18,8.3,18,18c0,9.8-8.3,18.1-18.1,18c-9.7,0-17.9-8.4-17.9-18.1C211,47.7,219.3,39.5,229,39.5z
	"/>
<path class="st0" d="M57,219.6c0,5.2-4.9,10-10.2,9.9c-5.2-0.1-10-5-9.8-10.2c0.1-5.1,4.9-9.8,10-9.8C52.3,209.5,57,214.4,57,219.6z
	"/>
<path class="st0" d="M311.1,81.5c-5.2,0-10.1-4.8-10.1-10c0-5.2,4.8-10,10.1-10c5.1,0,9.9,4.7,9.9,9.9
	C321.1,76.6,316.3,81.5,311.1,81.5z"/>
<path class="st3" d="M110.5,186c-3.1,0-5.5-2-8.3-2.9c-1.1-0.4-0.7-1.9-0.6-3c0.1-0.9,0.8-1.2,1.6-1.2c2.7,0.2,4.8-1.6,7-2.7
	c2.4-1.2,3.1-4.1,3.2-6.6c0.1-2.1,1.4-3.2,2.7-3.8c1.8-0.9,2.4,1,2.9,2.3c0.5,1.2,0.6,2.5,0.9,3.8c1.1,5.1,5.4,5.8,9.5,6.9
	c1.2,0.3,1.7,0.9,2,1.9c0.2,0.8,0.6,1.9-0.8,2.2c-0.1-0.1-0.1-0.2-0.2-0.2c-0.1-0.8-0.2-1.7-1.2-1.9c-0.2-0.1-0.4-0.2-0.6-0.3
	c-2.1-1.1-4.3-1.5-6.5-2.2c-1.5-0.7-2.4-1.9-2.9-3.6c-0.6-2.1-1.2-4.1-2.6-6c-1.2,0.7-1.1,2-1.7,2.9c-0.2,0.4-0.6,0.7-0.7,1
	c-0.8,4.1-3.8,5.9-7.4,7.1c-0.2,0.1-0.5,0.2-0.7,0.2c-0.2,0-0.5,0.1-0.7,0.1c-1,0-2.3,0.1-2.4,1.3c-0.1,1.2,1.3,0.9,2.1,1.3
	c1,0.5,2,0.7,3,1C108.8,184.4,110.4,184.5,110.5,186z"/>
<path class="st3" d="M274.5,34c-3.1,0-5.5-2-8.3-2.9c-1.1-0.4-0.7-1.9-0.6-3c0.1-0.9,0.8-1.2,1.6-1.2c2.7,0.2,4.8-1.6,7-2.7
	c2.4-1.2,3.1-4.1,3.2-6.6c0.1-2.1,1.4-3.2,2.7-3.8c1.8-0.9,2.4,1,2.9,2.3c0.5,1.2,0.6,2.5,0.9,3.8c1.1,5.1,5.4,5.8,9.5,6.9
	c1.2,0.3,1.7,0.9,2,1.9c0.2,0.8,0.6,1.9-0.8,2.2c-0.1-0.1-0.1-0.2-0.2-0.2c-0.1-0.8-0.2-1.7-1.2-1.9c-0.2-0.1-0.4-0.2-0.6-0.3
	c-2.1-1.1-4.3-1.5-6.5-2.2c-1.5-0.7-2.4-1.9-2.9-3.6c-0.6-2.1-1.3-4.1-2.5-6.1c-1.2,0.7-1.2,2-1.8,2.9c-0.2,0.4-0.6,0.7-0.7,1
	c-0.8,4.1-3.8,5.9-7.4,7.1c-0.2,0.1-0.5,0.2-0.7,0.2c-0.2,0-0.5,0.1-0.7,0.1c-1,0-2.3,0.1-2.4,1.3c-0.1,1.2,1.3,0.9,2.1,1.3
	c1,0.5,2,0.7,3,1C272.8,32.4,274.4,32.5,274.5,34z"/>
<path class="st4" d="M77.5,394.5c-0.2-0.1-0.5-0.3-0.6-0.4c-1.3-4.7-5.2-5.1-9-6.2c-1.8-0.5-3.6-1.6-4.9-2.9c-1.8-2-0.2-4.8,2.8-4.9
	c1.7-0.1,3.2-0.1,4.5-1.6c0.8-1,2.4-0.2,3.6-1.1c2.4-1.7,2.5-4.7,4.1-6.8c0.5-0.5-0.1-2.2,1.6-1.6c0.5,0.6,0.6,1.4,0.3,2.1
	c-1.6,4-3.2,8.2-8.1,9.4c-1,0.4-2,1-3.2,1.2c-1.5,0.2-3.9-0.5-4,1.8c-0.1,1.9,2.3,1.5,3.6,2.2c0.2,0.1,0.4,0.2,0.6,0.3
	c2.4,0.8,4.6,1.8,7,2.6c1.2,0.5,2,1.3,2.3,2.6c0.1,1,0.2,1.9-0.1,2.8C77.9,394.1,77.7,394.3,77.5,394.5z"/>
<path class="st4" d="M885.5,70.5c-0.2-0.1-0.5-0.3-0.6-0.4c-1.3-4.7-5.2-5.1-9-6.2c-1.8-0.5-3.6-1.6-4.9-2.9c-1.8-2-0.2-4.8,2.8-4.9
	c1.7-0.1,3.2-0.1,4.5-1.6c0.8-1,2.4-0.2,3.6-1.1c2.4-1.7,2.5-4.7,4.1-6.8c0.5-0.5-0.1-2.2,1.6-1.6c0.5,0.6,0.6,1.4,0.3,2.1
	c-1.6,4-3.2,8.2-8.1,9.4c-1,0.4-2,1-3.2,1.2c-1.5,0.2-3.9-0.5-4,1.8c-0.1,1.9,2.3,1.5,3.6,2.2c0.2,0.1,0.4,0.2,0.6,0.3
	c2,0.8,4,1.4,6,2.3c2.5,1.1,3.8,2.9,3.2,5.7C885.9,70.1,885.7,70.3,885.5,70.5z"/>
<path class="st5" d="M86.5,369c0,1.3-0.3,2.8,1.5,3.3c0.9,0.2,0.5,0.9,0.5,1.4c0.2,2.8,1.5,4,4.2,4.3c2.9,0.3,5.3,2.2,8.1,3
	c1.1,0.3,1.2,2.1,1.1,3.3c-0.1,1.1-1,1.7-2.2,1.6c-0.9-0.1-1.5,0.7-2.2,1c-0.6,0.5-1.2,0.6-1.9,0.2c-0.5-0.5-0.1-0.9,0.2-1.4
	c0.8-0.6,1.8-0.8,2.7-1.2c0.5-0.2,1.2-0.3,1.3-1c0.1-0.9-0.7-1.4-1.3-1.6c-2-0.7-3.9-1.4-5.9-1.9c-1.4-0.3-3-0.6-4.1-1.7
	c-0.2-0.2-0.4-0.3-0.5-0.5c-1.4-2.3-2.4-4.8-2.9-7.4C85.4,369.9,85.4,368.9,86.5,369z"/>
<path class="st6" d="M907,62c-0.4,1.2-1.6,2-2.6,1.9c-2.5-0.2-4.1,1.4-6.2,2.1c-0.5,0.2-0.9,0.6-1,1c-0.5,2.6-3,4.3-2.9,7.2
	c0.1,2-2.1,3-2.9,4.7c-0.4-0.4-0.6-0.9-0.6-1.4c1.9-4.1,2.4-8.8,5.1-12.5c0.2-0.2,0.4-0.3,0.6-0.5c2.9-1.6,6.2-2.3,9.2-3.7
	c0.8-0.4,1.7-0.6,2.6,0C908.8,62.3,907.3,61.4,907,62z"/>
<path class="st5" d="M907,62c0.5-0.3,1-0.7,1.5-1c-0.7-3.7-4.2-3.4-6.7-4.5c-1.7-0.7-3.8-0.6-5.3-2c-0.2-0.2-0.4-0.3-0.5-0.5
	c-1.5-2.3-2.4-4.8-2.9-7.4c0.3-0.6,0.3-1.6,1.4-1.5c0,1.3-0.3,2.8,1.4,3.3c0.9,0.2,0.5,0.9,0.5,1.4c0.2,2.8,1.5,4,4.2,4.3
	c2.9,0.3,5.3,2.2,8.1,3c1.2,0.4,1.3,2.2,1,3.5C909.5,61.9,908.2,62.1,907,62z"/>
<path class="st7" d="M86.5,369c-0.3,0.5-0.7,1-1,1.5c-0.9-0.8-1.4-1.8-2.1-2.6c-0.1-0.2-0.2-0.4-0.3-0.6c-0.6-1.1-1.2-1.3-1.9-0.1
	c-0.4,0.7-0.6,1.7-1.7,1.9c-1.1-0.1-0.8,1.2-1.5,1.5c0.3-2.2,0.3-4.4,2.2-6c1.9-1.6,4.7-1,5.2,1.5C85.7,367.1,86.1,368,86.5,369z"/>
<path class="st7" d="M894.5,45c-0.3,0.5-0.7,1-1,1.5c-0.9-0.8-1.4-1.8-2.1-2.6c-0.1-0.2-0.2-0.4-0.3-0.6c-0.6-1.1-1.2-1.3-1.9-0.1
	c-0.4,0.7-0.6,1.7-1.7,1.9c-1.1-0.1-0.8,1.2-1.5,1.5c0.3-2.2,0.3-4.4,2.2-6c1.9-1.6,4.7-1,5.2,1.5C893.7,43.1,894.1,44,894.5,45z"/>
<path class="st6" d="M130.5,183c-1.2,1.1-2.4,1.8-4.1,2.1c-3.7,0.7-5.5,3.3-6.5,6.6c-0.5,1.6-0.3,3.6-2.4,4.2
	c0.4-3.9,1.1-7.7,4.2-10.5c1.9-1.3,4-2.2,6.3-2.7C128.8,182.6,129.7,182.3,130.5,183L130.5,183z"/>
<path class="st6" d="M294.5,31c-1.2,1.1-2.4,1.8-4.1,2.1c-3.7,0.7-5.5,3.3-6.5,6.6c-0.5,1.6-0.3,3.6-2.4,4.2
	c0.4-3.9,1.1-7.7,4.2-10.5c1.9-1.3,4-2.2,6.3-2.7C292.8,30.6,293.7,30.3,294.5,31L294.5,31z"/>
<path class="st8" d="M122,186c-1.2,0.8-1.9,2.1-2.4,3.4c-0.8,2.2-1.4,4.4-2.1,6.6c-1,1.4-1.8,1.1-2.5-0.4c-0.4-0.9-0.6-1.7-0.5-2.6
	c-0.3-0.9-0.5-1.8-0.3-2.7c0.9-1,1.1,0,1.3,0.5c0.3,0.8,0.1,1.8,0.9,2.7c1.3-2,1.3-4.3,2.5-6.2c0.8-1.3,1.5-2.6,3.3-2.4
	C122.3,185.3,122.3,185.7,122,186z"/>
<path class="st8" d="M286,34c-1.2,0.8-1.9,2.1-2.4,3.4c-0.8,2.2-1.4,4.4-2.1,6.6c-1,1.4-1.8,1.1-2.5-0.4c-0.4-0.9-0.6-1.7-0.5-2.6
	c-0.3-0.9-0.5-1.8-0.3-2.7c0.9-1,1,0,1.3,0.5c0.4,0.8,0,1.8,0.9,2.6c1.2-1.9,1.3-4.2,2.4-6.1c0.8-1.3,1.5-2.6,3.3-2.4
	C286.3,33.3,286.3,33.7,286,34z"/>
<path class="st9" d="M89.5,391c-1.1,2.8-3.1,5.1-3.2,8.4c-0.1,1.2-1.8,2.4-2.8,3.6c-0.4-0.4-0.6-0.9-0.5-1.5c1.3-2.9,2.1-6.1,3.4-9
	c0.4-0.9,0.9-1.8,2.1-1.9C88.8,390.6,89.2,390.7,89.5,391z"/>
<path class="st10" d="M891.5,77.5c0,0.5,0,1,0,1.5c-2.4,0.5-4.9-2.1-5-5.3c0-1.2-0.3-2.3-1-3.2c0-0.2,0-0.3,0-0.5
	c1.6-0.6,2,0.7,2.5,1.7c0.3,0.5,0.2,1.1,0.3,1.7C888.9,75.1,889.3,77,891.5,77.5z"/>
<path class="st10" d="M83.5,401.5c0,0.5,0,1,0,1.5c-2.4,0.5-4.9-2.1-5-5.3c0-1.2-0.3-2.3-1-3.2c0-0.2,0-0.3,0-0.5
	c2.3-0.3,2.5,1.4,2.6,2.9C80.4,399.2,81.1,400.9,83.5,401.5z"/>
<path class="st11" d="M89.5,391c-0.3,0-0.7,0-1,0c-0.4-0.5-0.4-1.1-0.1-1.6c0.9-1.7,5.2-3.2,7.1-2.4c0.7,0,1.3,0,2,0
	c-0.1,1.1-0.9,0.9-1.7,1C93.5,388.5,91.2,389.1,89.5,391z"/>
<path class="st12" d="M278.5,38c0,1,0,2,0,3c-0.7-1.6-2-3-2.1-4.9c-0.1-1.1-0.9-1.7-1.9-2.1c-0.6-0.9-2.1-0.8-2.5-2
	c2-0.6,4.4,0.6,5.5,2.9C278,35.9,278.3,36.9,278.5,38z"/>
<path class="st12" d="M114.5,190c0,1,0,2,0,3c-0.7-1.6-2-3-2.1-4.9c-0.1-1.1-0.9-1.7-1.9-2.1c-0.6-0.9-2.1-0.8-2.5-2
	c2-0.6,4.4,0.6,5.5,2.9C114,187.9,114.3,188.9,114.5,190z"/>
<path class="st13" d="M317,204.6c0,3.5-1.3,6.3-4.4,8.1c-2.8,1.7-5.7,3.3-8.6,5c-1.1,0.6-3.1,0.8-2.8,2.4c0.3,1.7,2.1,0.5,3.2,0.7
	c8,1.4,16.1,0.4,24.2,0.6c3,0.1,6,0,9-0.1c2.1-0.1,4.4,1,6.1,2.4c1.8,1.4,3.2,1.1,5,0.2c1.6-0.8,3.5-2,5-1.7
	c2.2,0.3,4.6,1.2,5.9,3.3c1.5,2.4,2.4,1.9,4.1,0.1c3.7-4.1,7.5-4.3,12.1-1c1.4,1,2.7,1.1,4.1,0.1c1-0.6,2-1.3,3.1-1.6
	c4.1-1.3,8,0.6,9.2,4.6c1.2,3.8-1.1,7.3-5.1,8.9c-2.7,1-4.8-0.3-6.7-1.5c-1.7-1.1-3-1.2-4.7,0c-4.9,3.4-9.1,2.7-12.6-1.9
	c-1.3-1.7-2.3-1.3-3,0.1c-1.4,2.6-3.9,3.5-6.3,4c-1.7,0.4-3.6-0.8-5.3-1.8c-1.7-1-3.1-1.1-4.7,0.2c-3.9,2.9-8.7,2.9-13.2,3.2
	c-8,0.4-16,0.1-24,0.1c-1.1,0-2.1-0.3-3.2-0.5c-0.9-0.1-1.9,0-2.2,0.8c-0.4,1,0.7,1.3,1.4,1.8c2.9,1.7,5.7,3.4,8.6,5.1
	c3.9,2.3,6.2,5.4,5.7,10.2c-0.3,2.7-1.9,4.8-4.4,5.7c-3.1,1.1-5.9,0.7-8.7-0.8c-4.5-2.4-9-4.8-13.4-7.2c-7.4-4.1-14.8-8.2-22.2-12.4
	c-2.3-1.3-4.6-2.7-6.8-4.2c-5.4-3.7-5.4-11.9,0.1-15.4c4.9-3.1,10-6,15.1-8.8c8.8-4.9,17.6-9.7,26.5-14.5c2.1-1.1,4.4-2.2,6.8-2.1
	C314.4,196.8,317,199.9,317,204.6z"/>
<path class="st14" d="M372.6,285.7c-5,0-10,0.1-15-0.1c-2.2-0.1-4.4-1-6.2-2.3c-1.6-1.1-3-1-4.7-0.3c-3.2,1.5-6.4,2.1-9.7-0.1
	c-1-0.6-1.5-1.6-2.1-2.4c-0.9-1.2-1.7-1.2-2.8,0c-4.3,4.8-7.9,5.3-13.2,1.8c-1.7-1.1-2.8-0.8-4.3,0.2c-3.1,2.1-6.5,1.9-9.3,0.1
	c-2.7-1.7-2.6-5.3-2.1-7.9c0.6-2.7,2.8-4.2,5.7-4.3c2.2-0.1,4.3,0.2,6.1,1.7c1.2,1,2.3,1.1,3.8-0.1c4.6-3.6,9.4-2.9,13.2,1.6
	c1,1.2,2,1.7,2.9,0c1.9-3.7,7.3-4.9,11.2-2.7c2,1.1,3.7,1,5.6-0.1c3.8-2.2,8.2-2.7,12.4-2.9c6.3-0.2,12.7-0.1,19,0
	c2.6,0,5.3-0.3,7.9,0.4c1,0.3,2.3,0.2,2.7-0.8c0.4-1.1-0.9-1.7-1.7-2.1c-2.6-1.5-5.2-2.9-7.8-4.4c-2.2-1.3-4.1-2.8-5.2-5.2
	c-1.6-3.3-1.4-6.6,0.9-9.3c2.2-2.6,5.5-2.5,8.6-1.8c4.2,0.9,7.7,3.5,11.4,5.5c8.5,4.6,16.8,9.3,25.2,14.1c3.3,1.9,6.8,3.5,9.6,6.2
	c4.5,4.4,3.6,11.8-1.8,15c-8.6,5-17.4,9.7-26.1,14.6c-5.2,2.9-10.5,5.8-15.7,8.6c-1.9,1-3.9,1.6-6.2,1.4c-5.3-0.6-8.2-4.7-6.7-9.9
	c0.7-2.5,1.9-4.6,4.3-5.9c3.3-1.8,6.5-3.7,9.7-5.6c0.7-0.4,1.7-0.8,1.6-1.7c-0.2-1.2-1.4-0.8-2.3-0.9
	C385.2,285,378.9,285.8,372.6,285.7z"/>
<path class="st15" d="M384.9,418.6c-4.6-4.8-9.2-8.8-14.2-12.2c-1.3-0.9-1.3-2.2-1.1-3.6c2.7-12.9,13.5-22.9,26.4-24.9
	c1.9-0.3,3.8-0.4,5.7-0.4c175.6,0,351.1,0,526.7,0c15.2,0,28.3,10,31.8,25.1c0.5,2.1,0.8,4.2,0.8,6.4c0,17.3-0.1,34.7,0,52
	c0.1,15-9.9,28.2-24.9,31.7c-2.3,0.5-4.5,0.9-6.9,0.8c-173.7,0-347.5,0-521.2,0c-3.1,0-3.1,0-2.5-2.9c2.3-11.7,1.8-23.2-0.9-34.8
	c-0.4-1.7-0.3-2.4,1.8-2.4c10.7,0.1,21.3,0,32,0.1c1.9,0,2.6-0.4,2.6-2.5c-0.1-11.7-0.1-23.3,0-35c0-2.2-0.7-2.6-2.7-2.6
	c-16.7,0.1-33.3,0-50,0c-3.7,0-3.3-0.2-3.3,3.4C385,417.3,384.9,417.7,384.9,418.6z"/>
<path class="st16" d="M399,475.5c-0.1,42-34,76.1-76.2,76c-41.9-0.1-76-33.9-75.8-76.4c0.2-41.7,33.9-75.7,76.3-75.6
	C365.1,399.7,398.9,433.4,399,475.5z"/>
<path class="st15" d="M803,293.5c-70.9,0-141.8,0-212.7,0c-8.6,0-16.4-2.2-23.2-7.5c-7.5-6-12.5-13.6-13.5-23.3
	c-1.3-11.9-1-24-0.3-35.9c0.9-16.6,12.9-29.3,28.8-32.6c2.2-0.5,4.6-0.7,6.9-0.7c142.7,0,285.5,0,428.2,0
	c16.9,0,31.9,12.2,35.2,28.9c0.4,2.2,0.7,4.4,0.7,6.7c-0.1,9.4,0,18.8,0,28.2c0,17.2-12,32.1-28.9,35.5c-2.4,0.5-4.9,0.7-7.4,0.7
	C945.4,293.5,874.2,293.5,803,293.5z"/>
<path class="st15" d="M516.1,247.5c-13.6-0.8-26.5-7.5-35-21.8c-4.6-7.7-6.8-16.1-6-25c1.3-15.1,8.2-26.9,21.3-34.9
	c7.7-4.7,16.2-6.9,25.2-6.3c9.2,0.6,17.6,3.8,24.9,9.6c6.5,5.2,11,11.7,13.9,19.4c0.5,1.4,0.4,2.1-0.7,3c-9.7,7.6-15.7,17.4-18,29.5
	c-1.1,5.9-0.7,11.9-0.7,17.9c0,2.1-0.7,3.2-2.5,4C532.2,245.9,525.5,247.5,516.1,247.5z"/>
<path class="st16" d="M540.8,250.7c0.3,4.4,0.4,4.5-3.3,5.7c-18.7,5.9-36.2,3.5-52.1-8.3c-12.2-9-19.4-21.3-21.7-36.2
	c-2.4-15.3,1.2-29.3,10.5-41.8c7.8-10.5,18.1-17.5,30.7-20.8c15-3.9,29.3-1.8,42.7,6c10.5,6.2,18,15,22.9,26.2
	c0.4,1,1.6,2.2,0.5,3.4c-1.4,1.5-2.8,1.2-3.7-0.8c-7.7-17.5-21-28.5-39.8-32c-14.5-2.6-27.9,1-39.7,9.8c-11,8.3-17.8,19.4-20.1,33
	c-2.4,14.5,1,27.9,9.9,39.7c8.3,11,19.5,17.7,33,20.1c9.9,1.7,19.5,0.4,28.8-3.5C539.8,251.2,540.2,251,540.8,250.7z"/>
<path class="st16" d="M977,75.5c7.7,0,14,6.4,14,14.2c0,7.6-6.4,13.8-14,13.8c-7.7,0-14-6.4-14-14.2C963,81.7,969.4,75.5,977,75.5z"
	/>
<path class="st16" d="M124.9,351.5c-7.7,0-14-6.4-13.9-14.2c0-7.6,6.4-13.8,14.1-13.8c7.7,0,14,6.4,13.9,14.2
	C139,345.3,132.6,351.5,124.9,351.5z"/>
<path class="st16" d="M229.2,43.5c7.7,0.1,13.9,6.5,13.8,14.3c-0.1,7.5-6.5,13.7-14.2,13.7c-7.7-0.1-13.9-6.5-13.8-14.3
	C215.1,49.6,221.5,43.4,229.2,43.5z"/>
<path class="st17" d="M114.5,190c-1.4-0.1-1-1.3-1.3-2.1c-1-2.4-2.7-3.7-5.2-3.9c-1.1,0-2.2,0-3-1c-0.7-0.4-1.9-0.4-1.7-1.7
	c0.2-1,1-1.2,1.9-1.3c0.3,0,0.6-0.2,0.9-0.5c0.2,0,0.3,0,0.5,0c1.2-0.4,2.4-1,3.7-1.4c1.3-0.4,2.5-1.6,2.8-3.2
	c0.3-1.2,0.9-2.3,1.5-3.4c0.1-1.5,0.4-3.5,1.7-3.7c1.7-0.4,1.2,2,2,2.9c0.6,0.7,0.6,1.4,0.9,2.2c0.6,1.9,1.1,3.9,2.9,5.2
	c2.3,1,4.8,1.3,7,2.5h0c1.4,1.1,0.8,1.8-0.5,2.3c-2.2,0.8-4.4,1.4-6.5,2.2c-2.5,1.2-3.1,3.6-4,5.9c-0.1,0.1,0,0.3,0,0.5
	c-0.3,1.3-0.7,3.3-1.6,3.2c-1.4-0.1-1.4-1.9-1.4-3.3C115,190.8,115,190.3,114.5,190z"/>
<path class="st18" d="M122,185c1.6-1.9,4.2-1.5,6.2-2.5c1.1-0.6,1.3-1,0.8-2c2.1-0.1,2,1.1,1.5,2.5c-3.1,0.2-5.9,1.3-8.5,3
	C122,185.7,122,185.3,122,185z"/>
<path class="st12" d="M114.5,171.5c-0.5,4.8-2.8,7.1-8,8c0.9-0.8,1.8-1.2,3-1.6c1.7-0.6,3.1-1.8,3.4-3.8
	C113.1,173,113.4,172,114.5,171.5z"/>
<path class="st12" d="M106,179.5c-0.1,0.4-0.1,0.8-0.6,0.9c-2.9,0.5-1.7,1.5-0.4,2.6c-1.2,0-3,0.1-2.8-1.5
	C102.3,179.3,104.3,179.5,106,179.5z"/>
<path class="st18" d="M129,180.5c-2.5-0.3-4.9-1-7-2.5C124.5,178.4,127.1,178.5,129,180.5z"/>
<path class="st17" d="M278.5,38c-1.4-0.1-1-1.3-1.3-2.1c-1-2.4-2.7-3.7-5.2-3.9c-1.1,0-2.2,0-3-1c-0.7-0.4-1.9-0.4-1.7-1.7
	c0.2-1,1-1.2,1.9-1.3c0.3,0,0.6-0.2,0.9-0.5c0.2,0,0.3,0,0.5,0c1.2-0.4,2.4-1,3.7-1.4c1.3-0.4,2.5-1.6,2.8-3.2
	c0.3-1.2,0.9-2.3,1.5-3.4c0.1-1.5,0.4-3.5,1.7-3.7c1.7-0.4,1.2,2,2,2.9c0.6,0.7,0.6,1.4,0.9,2.2c0.6,1.9,1.1,3.9,2.9,5.2
	c2.3,1,4.8,1.3,7,2.5v0c1.4,1.1,0.8,1.8-0.5,2.3c-2.2,0.8-4.4,1.4-6.5,2.2c-2.5,1.2-3.1,3.6-4,5.9c-0.1,0.1,0,0.3,0,0.5
	c-0.3,1.3-0.7,3.3-1.6,3.2c-1.4-0.1-1.4-1.9-1.4-3.3C279,38.8,279,38.3,278.5,38z"/>
<path class="st18" d="M286,33c1.6-1.9,4.2-1.5,6.2-2.5c1.1-0.6,1.3-1,0.8-2c2.1-0.1,2,1.1,1.5,2.5c-3.1,0.2-5.9,1.3-8.5,3
	C286,33.7,286,33.3,286,33z"/>
<path class="st12" d="M278.5,19.5c-0.5,4.8-2.8,7.1-8,8c0.9-0.8,1.8-1.2,3-1.6c1.7-0.6,3.1-1.8,3.4-3.8
	C277.1,21,277.4,20,278.5,19.5z"/>
<path class="st12" d="M270,27.5c-0.1,0.4-0.1,0.8-0.6,0.9c-2.9,0.5-1.7,1.5-0.4,2.6c-1.2,0-3,0.1-2.8-1.5
	C266.3,27.3,268.3,27.5,270,27.5z"/>
<path class="st18" d="M293,28.5c-2.5-0.3-4.9-1-7-2.5C288.5,26.4,291.1,26.5,293,28.5z"/>
<path class="st19" d="M77.5,391c-0.3-1.1-0.9-1.7-2-2c-1.9-2.1-4.6-2.1-7-3l0,0c-0.2-0.2-0.5-0.5-0.8-0.5c-1.2,0-2.1-0.6-2.3-1.8
	c-0.2-1.3,1.1-1.5,1.9-2c0.4-0.3,0.9-0.3,1.3-0.7c1-0.3,2-0.7,3-1c1.6-0.6,3.3-0.7,4.7-2c2.3-2.3,2.6-5.3,3.7-8.1
	c0.9-2.3,1.5-2.9,3.6-2.4l0,0c1.4,2.2,1.6,4.8,2.6,7.2c0.6,1.3,1,2.6,2.4,3.3h0c0.9,1.7,2.7,1.9,4.2,2.2c1.9,0.3,3.4,1.5,5.3,1.9
	c0.7,0.1,1.2,0.6,1.3,1.4c0,0.9-0.7,1.1-1.3,1.2c-1.3,0.3-2.2,1.1-3.3,1.7c-5.1,0.9-8.6,4.1-9.5,9.4c-0.2,1.3-0.8,2.3-1.2,3.5
	c-0.4,1.5-1.8,1.7-2.8,0.5c-0.3-0.4-0.8-0.9-0.7-1.3C80.4,395.6,78.3,393.5,77.5,391z"/>
<path class="st20" d="M77.5,391c1.4,2,3.2,3.7,3.1,6.5c0,0.6,0.6,1.4,1,1.9c0.8,0.9,1.5,0.9,1.9-0.4c0.6-2.1,1.5-4.1,2-6.2
	c1-3.9,5.2-6.6,9-6.8c0.5-0.4,1-0.4,1.5,0c-0.2,0.3-0.3,0.7-0.5,1c-3.6,0-6.5,1.6-7,4c-2.2,0.7-2.4,3.2-2.7,4.6
	c-0.4,2.2-1.8,3.8-2.3,5.9c-2.4,0.5-3.7-0.8-4-4.3c-0.1-1.6-0.4-2.7-2-3.2C77.5,393,77.5,392,77.5,391z"/>
<path class="st21" d="M83.5,367.5c-1.2-0.2-2.1,0.3-2.6,1.4c-0.9,2.2-1.8,4.3-2.4,6.6c-0.7,2.7-3.3,4.5-7,4.5c0.7-1,2-0.7,2.8-1.3
	c3.3-2.4,4.3-6,5.2-9.7c0.3-0.7,1-1.1,1-2c0-1.2,0.7-1.6,1.8-1.5C83.8,365.6,83.4,366.6,83.5,367.5z"/>
<path class="st22" d="M68.5,381c0,1-0.9,1.1-1.5,1.5c-0.5,0.3-1.5,0.3-1.2,1.2c0.2,0.6,0.4,1.5,1.5,1.3c0.7-0.1,1.1,0.2,1.2,1
	c-1.6,0.3-2.8-0.9-4.3-1.1c-0.9-0.1-0.9-1.1-0.6-1.6c0.5-0.9,0.7-2.3,2.2-2.3C66.7,381,67.6,381,68.5,381z"/>
<path class="st23" d="M68.5,386c2.6,0.4,5.6-0.2,7,3c-2.3-0.5-4.2-2-6.6-2.2C68.8,386.8,68.6,386.3,68.5,386z"/>
<path class="st19" d="M876.5,57c1-0.3,2-0.7,3-1c1.6-0.6,3.3-0.7,4.7-2c2.3-2.3,2.6-5.3,3.7-8.1c0.9-2.3,1.5-2.9,3.6-2.4v0
	c1.4,2.2,1.6,4.8,2.6,7.2c0.6,1.3,1,2.6,2.4,3.3l0,0c0.8,1.7,2.6,1.9,4,2.1c1.9,0.3,3.5,1.4,5.3,1.8c0.7,0.2,1.4,0.6,1.4,1.5
	c0,0.8-0.8,0.9-1.4,1.2c-3,1.8-6.7,2-9.3,4.4l0,0c-2.3,1.7-2.6,4.4-3.5,6.8c-0.4,1.1-0.7,2.2-1.3,3.2c-0.9,1.6-1.9,1.5-2.9,0
	c-0.2-0.3-0.7-0.7-0.6-1.1c0.5-2.9-2.2-4.6-2.7-7.2c-0.3-1.6-1.9-1.9-3.1-2.6c-1.7-1.5-4-1.3-5.9-2.2v0c-0.2-0.2-0.5-0.5-0.8-0.5
	c-1.2,0-2.1-0.6-2.3-1.8c-0.2-1.3,1.1-1.5,1.9-2C875.6,57.5,876.2,57.4,876.5,57z"/>
<path class="st24" d="M882.5,64c2,0.4,3.1,1.4,3.8,3.4c0.7,2.2,2.8,3.8,2.4,6.5c-0.1,0.5,0.6,1.9,1.5,1.9c0.8,0,1-1.1,1.3-1.8
	c1.1-2.5,1.6-5.3,3-7.6c0.5-0.8,0.9-1.4,1.9-1.2c-2.4,3.9-2.9,8.5-5,12.5c-2.8-0.1-3.5-0.7-3.9-4.6c-0.2-1.5-0.6-2.5-2.1-2.9
	c0.4-2.6-0.7-4.4-3-5.5c-0.1-0.1-0.2-0.2-0.1-0.3C882.4,64.1,882.5,64,882.5,64z"/>
<path class="st21" d="M891.5,43.5c-1.2-0.2-2.1,0.3-2.6,1.4c-0.9,2.2-1.8,4.3-2.4,6.6c-0.7,2.7-3.3,4.5-7,4.5c0.7-1,2-0.7,2.8-1.3
	c3.3-2.4,4.3-6,5.2-9.7c0.3-0.7,1-1.1,1-2c0-1.2,0.7-1.6,1.8-1.5C891.8,41.6,891.4,42.6,891.5,43.5z"/>
<path class="st22" d="M876.5,57c0,1-0.9,1.1-1.5,1.5c-0.5,0.3-1.5,0.3-1.2,1.2c0.2,0.6,0.4,1.5,1.5,1.3c0.7-0.1,1.1,0.2,1.2,1
	c-1.6,0.3-2.8-0.9-4.3-1.1c-0.9-0.1-0.9-1.1-0.6-1.6c0.5-0.9,0.7-2.3,2.2-2.3C874.7,57,875.6,57,876.5,57z"/>
<path class="st23" d="M882.5,64c0,0.2,0,0.3,0,0.5c-2.1-0.7-4.3-0.9-6-2.5C878.6,62.4,881.1,61.6,882.5,64z"/>
<path class="st25" d="M96,386c-0.5,0-1,0-1.5,0c0.9-1.1,1.8-2.1,3.4-2c0.4,0,0.9-0.1,0.8-0.7c-0.1-0.4-0.5-0.6-0.9-0.8
	c-2.6-0.9-5.2-1.8-7.9-2.6c-0.9-0.3-1.6-0.8-1.5-1.9c2.8,1.6,6,1.8,9,3c0.5,0.2,1.1,0.1,1.6,0.6c0.6,0.7,1.9,1,1.8,2.2
	c-0.1,1.3-1.4,1.2-2.2,1.5C97.7,385.6,97,386.1,96,386z"/>
<path class="st25" d="M88.5,378c-1.7,0.1-2.4-1.3-2.8-2.4c-1-2.6-1.5-5.4-2.2-8.1c0.9,0.8,2,1.5,2,3C86.5,373,87.5,375.5,88.5,378z"
	/>
<path class="st25" d="M896.5,65c0.3-1.2,1.2-2.2,2.1-2.2c2.8-0.2,4.8-2.5,7.5-2.8c0.4,0,0.7-0.2,0.6-0.6c0-0.5-0.4-0.7-0.8-0.8
	c-2.6-0.9-5.3-1.8-7.9-2.6c-1-0.3-1.7-0.8-1.5-1.9c2.8,1.6,6,2,9,2.9c2.2,0.7,3.4,1.9,3,4.1c-3.6,0.6-7,2.2-10.3,3.6
	C897.6,64.8,897.1,65,896.5,65z"/>
<path class="st25" d="M896.5,54c-1.7,0.1-2.4-1.3-2.8-2.4c-1-2.6-1.5-5.4-2.2-8.1c0.9,0.8,2,1.5,2,3C894.5,49,895.5,51.5,896.5,54z"
	/>
<path class="st26" d="M311,211c-3.3,2.8-7.4,4.2-11,6.5c-1,0.6-2,1.1-3,1.8c-0.6,0.5-1.7,0.6-1.4,1.7c0.3,1,1,1.7,2.1,1.9
	c1.4,0.3,2.8,0.5,4.2,0.5c9.9,0,19.8,0,29.7,0.1c1.5,0,3.1-0.3,4.6-0.2c2.9,0.1,4.6,2.1,6.7,3.5c0.9,0.7,1.1,4.8,0.2,5.6
	c-2.2,2.1-4.6,3.6-8,3.7c-12.1,0.6-24.1,0.1-36.2,0.3c-0.6,0-1.3,0.3-1.9,0.4c-0.9,0.2-1.3,0.8-1.4,1.5c-0.2,0.9,0.5,1.3,1.1,1.7
	c4.1,2.3,8.1,4.6,12.2,6.9c2.6,1.5,4.7,3.4,5.5,6.4c0.6,2.4-0.2,4.6-2.3,5.8c-2,1.2-4.5,1.3-6.7,0.3c-6-2.6-11.5-6.3-17.3-9.4
	c-4-2.1-7.9-4.4-11.9-6.5c-2.4-1.3-5-2.5-7.2-4.2c1.9-1,3.3,0.8,5.1,0.8c1.8,0.3,3.1,1.5,4.7,2.3c7.4,3.8,14.4,8.2,21.7,12.2
	c1.5,0.8,2.9,1.6,4.5,2.1c1.2,0.4,2.4,0.7,3.6-0.2c2.8-0.7,2.8-0.7,2.2-4.4c-0.7-3-3.3-4.3-5.6-5.5c-3.6-2-7.1-4.2-10.9-6
	c-1.3-0.6-2.7-1.7-2.5-3.4c0.3-1.8,1.9-2.3,3.5-2.7c1.8-0.5,3.5,0.1,5.2,0.1c10.5,0,21,0.1,31.5,0c2.5,0,5-0.5,7.1-2
	c0.7-0.5,1.1-1.2,1.3-2c0.3-1.2-0.1-1.8-1.3-1.9c-0.9-0.1-1.8-0.1-2.7-0.1c-19.1,0-38.3,0-57.4,0c-1.2,0-2.4,0.1-3.5-0.3
	c-1.3-0.5-1.7-1.1-0.3-2c0.6-0.2,1.2-0.2,1.9-0.2c3.9-0.1,7.8,0,11.7,0c16,0,32.1,0,48.1-0.1c-2.2-0.7-4.4-0.9-6.6-0.9
	c-10.6,0-21.1,0-31.7,0c-0.7,0-1.5,0-2.2,0c-2-0.1-4.4,0.3-5-2.2c-0.6-2.4,1.4-3.7,3-4.7c4.8-2.9,9.8-5.4,14.5-8.3
	c0.9-0.6,2-1,1.9-2.4c0-1.1,0.4-1.8,1.4-2.3c1.9,0.7,1.4,2,0.8,3.4C312.5,209.8,311.8,210.4,311,211z"/>
<path class="st26" d="M311,211c1-1.7,3.1-3.2,1-5.5c-0.1-0.2-0.2-0.4-0.1-0.6c0.6-0.7,1.4-1.3-0.2-1.8c-1-0.8-2.4,0.2-3.4-0.5
	c-0.2-0.7-0.7-0.8-1.4-0.6c-1.7,0.5-3.3,1.1-4.8,2c-9,5.2-18.2,10.1-27.3,15.1c-0.4,0.2-0.9,0.4-1.4,0.6c-1.7,0.1-3.1,1.9-5,0.9
	c1.2-1.9,3.5-2.1,5.2-3.2c6.9-4.1,14-7.6,21-11.5c3.3-1.8,6.5-3.9,10-5.4c3-1.3,6.4-1.6,8.6,1C315.4,203.8,315,208.9,311,211z"/>
<path class="st27" d="M268.5,220.5c1.8,0,3.2-1.3,5-1.5c0.3,1.1-0.7,1.4-1.3,1.8c-1.7,1.1-3.6,2-5.4,2.9c-1.8,0.9-3.4,2-3.5,4.3
	c-0.6,1-0.7,2.1-0.6,3.2c0.2,1.9,1.9,2.6,3,3.8c0.7,0.7,1.7,1.1,2,2.2c0,0.3-0.1,0.4-0.4,0.6c-2.8-0.7-4.8-2.3-6.3-4.7
	c-1.9-3.7-0.9-7.3,2.8-9.8C265.2,222.1,266.9,221.4,268.5,220.5z"/>
<path class="st28" d="M370.1,231.5c-1.2-0.3-3.1,0.8-3.1-1.9c0-2.5,1.9-1.6,3-1.6c1.2,0,3-0.8,3,1.7
	C373.1,232.1,371.4,231.3,370.1,231.5z"/>
<path class="st29" d="M385.5,228c1.2,0.1,2.5-0.4,2.5,1.7c0,2.2-1.4,1.8-2.7,1.8c-1.3,0-2.4,0.1-2.4-1.8
	C383,227.7,384.3,228,385.5,228z"/>
<path class="st16" d="M353.9,228c1.2-0.1,2.1,0,2.1,1.7c0,2-1.2,1.7-2.5,1.8c-1.4,0.1-2.1-0.3-2.1-1.9
	C351.5,227.8,352.6,228,353.9,228z"/>
<path class="st26" d="M261,233c2.2,1.5,3.7,3.8,6.5,4.5c0.7,0.2,1.3,0.6,1,1.5c-2.5-0.5-4.4-2.2-6.4-3.6
	C261.4,234.8,260.9,234,261,233z"/>
<path class="st27" d="M268.5,239c-0.3-0.5-0.7-1-1-1.5l0,0c0.2-0.2,0.4-0.4,0.6-0.3c2.1,1,4.8,1.2,5.9,3.8c-1.8-0.2-3.2-1.5-5-1.5
	C268.8,239.3,268.7,239.2,268.5,239z"/>
<path class="st14" d="M406,256c0.8-0.5,1.4-0.1,2.1,0.3c7.7,4.3,15.5,8.3,23.1,12.9c7.7,4.7,5.8,12.8-0.3,16.2
	c-11.4,6.4-22.7,12.8-34.2,18.9c-3.5,1.9-6.8,4.2-11,4.2c-5.3,0-7-4.3-5.8-8.4c0.8-2.8,2.6-4.9,5.4-6.2c3.3-1.6,6.4-3.5,9.6-5.3
	c1.1-0.6,2.6-1.3,2.2-2.6c-0.4-1.3-2-1.5-3.4-1.5c-10.7,0-21.5,0-32.2,0c-2.6,0-5.1-0.4-7.5-1.5c-1.4-0.6-2-1.9-3-2.9
	c-1.2-1.2-2.1-1.7-3.7-0.2c-1.5,1.4-3.1,2.9-5.7,2.7c-2.4-0.3-4.8-1.6-5.4-3.8c-0.6-2.3-0.1-4.3,1.8-5.8c2-1.6,5-1.7,6.9-0.3
	c0.1,0,0.1,0.1,0.2,0.2c3.8,2.8,3.8,2.8,7.1-0.3c1.7-1.7,3.9-2.1,6.1-2.5c4.3-0.7,8.6-0.5,12.9-0.5c6,0,12,0,18,0
	c1.8,0,3.5,0.7,5.4,0.1c1-0.3,2.3-0.1,2.6-1.4c0.3-1.1-0.9-1.4-1.6-1.9c-0.3-0.2-0.4-0.5-0.6-0.8c0.1-0.1,0.2-0.2,0.3-0.2
	c0.9-0.2,1.6,0.1,2.4,0.5c0.3,0.1,0.5,0.3,0.7,0.5c2.2,2.2,1.8,4-1.2,4.7c-1.1,0.3-2.2,0.2-3.2,0.2c-9.7,0-19.3,0-29,0
	c-1.2,0-2.3-0.1-3.5,0.1c-0.4,0.1-0.8,0.1-1.2,0.1c-2.6,0-5.1,0.4-7,2.4c-2.4,2.5-2.2,5.6,0.8,7.4c2.7,1.7,5.7,2.7,9,1.8
	c6.6-0.4,13.2-0.2,19.7-0.2c5,0,10-0.4,15,0.5c1.3,0.2,2.6,0.4,2.9,1.9c0.3,1.4-0.8,2.1-1.8,2.8c-3.3,2.3-6.9,4-10.4,6
	c-2.6,1.5-5.3,2.8-6.6,5.8c-0.8,1.9-1,3.8,0.5,5.4c1.5,1.6,3.3,2.2,5.7,1.6c4.3-1.1,7.8-3.8,11.6-5.8c7.2-3.9,14.4-7.6,21.4-11.9
	c2.9-1.8,6.1-3,8.9-5c2-1.4,3.9-3.1,4.4-5.5c0.6-2.6-0.1-4.9-2.3-6.7c-3.4-2.8-7.5-4.6-11.3-6.8c-4.9-2.9-10.3-5-14.8-8.6
	C406,256.3,406,256.1,406,256z"/>
<path class="st14" d="M324.8,271.5c3.4,0,6.2,2.7,6.2,5.8c0,3.3-2.6,5.7-6,5.7c-3.3,0-6.5-2.8-6.5-5.7
	C318.5,274.4,321.6,271.5,324.8,271.5z"/>
<path class="st14" d="M309.8,272c2.4,0,5.5,2.8,5.5,4.9c0.1,2.6-3.2,5.7-5.8,5.6c-2.7-0.1-5.1-2.6-5.1-5.2
	C304.5,274.5,307.1,272,309.8,272z"/>
<path class="st14" d="M395,265.5c-4.3-1.8-8.3-4-12-6.8c-3.4-2.6-4.5-7.7-2-10.8c2.1-2.6,5-2.3,7.3-1.7c6.4,1.7,11.8,5.6,17.4,8.9
	c0.2,0.1,0.2,0.6,0.3,0.9l0,0c-2,0.5-3.3-1.1-4.9-1.9c-4-2.1-7.9-4.6-12.2-6.2c-2.3-0.9-4.5-0.8-6.2,1.1c-1.7,1.9-1.6,4.1-0.5,6.3
	c1.3,2.9,3.9,4.3,6.7,5.5c0.3,0.1,0.6,0.3,0.9,0.5c0.7,0.6,1.5,1,2.3,1.3c0.4,0.2,0.8,0.4,1.2,0.7C393.9,264,395.2,264.1,395,265.5z
	"/>
<path class="st1" d="M616.9,453.5c-45.6,0-91.1,0-136.7,0.1c-2.4,0-3.3-0.4-3.2-3.1c0.2-11.4,0.1-22.8,0-34.2c0-2,0.4-2.8,2.6-2.7
	c91.6,0.1,183.3,0.1,274.9,0c2.2,0,2.6,0.7,2.6,2.7c-0.1,11.5-0.1,23,0,34.5c0,2.4-0.7,2.9-3,2.9
	C708.4,453.5,662.6,453.5,616.9,453.5z"/>
<path class="st1" d="M859.1,413.5c22.3,0,44.6,0,67,0c2.2,0,3,0.5,3,2.9c-0.1,11.5-0.1,23,0,34.5c0,2-0.4,2.8-2.6,2.8
	c-45-0.1-90-0.1-134.9,0c-1.9,0-2.6-0.4-2.6-2.5c0.1-11.7,0.1-23.3,0-35c0-2.1,0.7-2.6,2.7-2.6C814.1,413.5,836.6,413.5,859.1,413.5
	z"/>
<path class="st1" d="M323.2,403.5c39.5,0.1,72,32.3,71.8,72.4c-0.2,39.3-32.3,71.9-72.6,71.6c-39.1-0.3-71.8-32.3-71.4-72.8
	C251.4,435.7,283.2,403.4,323.2,403.5z"/>
<path class="st1" d="M762.9,225.5c38.3,0,76.6,0,115-0.1c2.5,0,3.2,0.6,3.2,3.2c-0.2,8.6-0.2,17.2,0,25.7c0,2.5-0.5,3.2-3.1,3.2
	c-37.7-0.1-75.3-0.1-113-0.1c-38.9,0-77.8,0-116.7,0c-3.2,0-3.2,0-3.2-3.2c0-8.6,0.1-17.2-0.1-25.7c0-2.4,0.6-3.1,3-3.1
	C686.3,225.5,724.6,225.5,762.9,225.5z"/>
<path class="st1" d="M966.9,257.5c-18.4,0-36.8,0-55.2,0c-2,0-2.7-0.5-2.7-2.6c0.1-9,0.1-18,0-27c0-2,0.7-2.5,2.6-2.5
	c37,0,74,0,110.9,0c1.9,0,2.6,0.4,2.6,2.5c-0.1,9-0.1,18,0,27c0,2.1-0.7,2.6-2.7,2.6C1003.9,257.5,985.4,257.5,966.9,257.5z"/>
<path class="st1" d="M592.9,225.5c7.2,0,14.5,0.1,21.7,0c1.9,0,2.4,0.6,2.4,2.4c-0.1,9.1-0.1,18.1,0,27.2c0,1.8-0.5,2.4-2.4,2.4
	c-14.5-0.1-29-0.1-43.5,0c-1.8,0-2.3-0.6-2.2-2.3c0.1-9.2,0.1-18.3,0-27.5c0-2,0.7-2.3,2.5-2.3C578.6,225.5,585.8,225.5,592.9,225.5
	z"/>
<path class="st30" d="M517.9,200.9c4.6-0.2,8.1,1.2,9.9,5c1.9,3.9,1.6,7.9-0.9,11.6c-3.1,4.4-12.3,5.3-16.2,1.6
	c-1-0.9-1.7-2-1.8-3.4c-0.1-1.5,0.2-2.6,1.7-3.2c1.1-0.5,2.2-0.4,3,0.4c1.1,1,1.3,2.5,0.5,3.7c-1,1.5-0.4,1.7,0.9,2.2
	c4.7,1.5,9.4-1.2,9.1-8c-0.1-2.1-0.4-4.3-2.2-5.9c-2-1.7-4.1-2.1-6.5-1.2c-0.9,0.4-1.7,1.1-3.3,0.8c3.4-4.2,6.5-8.1,10-12.4
	c-4.3,0-8.1,0-11.9,0c-1.4,0-1.3,1-1.3,1.9c0,3.5,0,7,0,10.5c0,1.3,0.2,2.4,1.6,3.1c1.4,0.7,2.6,0.1,3.7-0.5
	c0.1-0.1,0.2-0.3,0.4-0.3c0.9-0.4,1.3-2.4,2.5-1.1c1.1,1.2-0.4,2.4-1.2,3.1c-2.7,2.2-5.8,1.9-8.8,0.8c-2.6-0.9-3.2-3.3-3.2-5.9
	c0.1-3.2,0-6.3,0-9.5c0-1.5-0.4-2.2-2-2c-1.2,0.1-2.5,0-3.7,0c-0.8,0-1.3-0.3-1.3-1.1c0-1,0.4-1.3,1.4-1.3c0.7,0,1.3,0.1,2,0
	c1.2-0.2,3,0.7,3.4-0.6c0.5-1.6,0.8-3.6-0.4-5.3c-0.4-0.5-1.1-1-0.7-1.7c0.4-0.7,1.2-0.4,1.8-0.4c4-0.1,4.4,0.3,4.4,4.3
	c0,4.2-0.5,3.6,3.8,3.7c4.2,0,8.3,0,12.5,0c1.3,0,2.5,0.4,2.9,1.5c0.4,1.1-1,1.3-1.6,1.9C523.7,195.4,521,198,517.9,200.9z"/>
<path class="st16" d="M262,231.5c0.4-1.1-0.9-2.7,1-3.5c0.8-1.3,2.1-2.4,3.4-2.8c4.8-1.6,8.8-4.6,13.1-7.2c4.6-2.7,9.8-4.5,14-7.9
	c1.5-1.2,3.4-1.7,5.2-2.4c3.1-1.3,5.3-3.9,8.5-5.1c0.5-0.2,0.9-0.5,1.4-0.1c1.2,0,2.3-1.2,3.5,0c0.7,0.8,0.7,1.7,0,2.5
	c0,0.2,0,0.3,0,0.5c-0.4,0.7-0.7,1.3-1.1,2c-0.2,0.3-0.5,0.4-0.8,0.6c-0.9,0.1-1.2,0.9-1.8,1.3c-3.6,0.8-6.4,3.4-9.6,5
	c-3.9,1.8-7.2,4.6-11.2,6.1c-0.3,0.1-0.5,0.5-0.7,0.7c-0.3,0.2-0.6,0.4-0.9,0.5c-0.7,0.1-1.3,0.3-1.8,0.7c-0.3,0.2-0.6,0.2-0.9,0.3
	c-0.9,0-1.2,0.7-1.6,1.3c-1.1,1.3-2.8,1.4-4.2,2.1c-0.7,0.1-1.4,0.4-1.9,1c-0.4,0.2-1.2,0.4-0.4,0.8c0.6,0.3,1.5,0.2,2.2,0.2
	c20.6,0,41.2,0,61.9,0c0.8,0,2.1-0.5,2.3,0.8c0.1,0.9,0.7,2.2-0.9,2.7c-1,0.9-2.3,0.7-3.6,0.7c-17.7,0-35.4,0-53.1,0
	c-2.3-0.1-4.5-0.1-6.8-0.1c-0.4,0-1-0.1-1,0.5c0,0.4,0.5,0.6,0.9,0.7c0.3,0.1,0.6,0.2,0.9,0.4c0.6,0.5,0.9,1.3,1.8,1.3
	c0.9,0.2,1.7,0.8,2.6,1c1.4,1.1,3.1,1.6,4.5,2.8c5.3,2.6,10.2,6,15.6,8.5c0.5,0.2,0.8,0.5,1.2,0.9c0.4,0.6,0.8,1.3,1.7,1.4
	c1,0.4,2,0.9,3.1,1.2c0.6,0.4,0.9,1.2,1.8,1.3c0.3,0.1,0.6,0.3,0.8,0.6c2.1,3.6,1.6,4.5-2.5,4.5c-0.6,0.5-1.2,0.2-1.6-0.2
	c-2.8-2.4-6.4-3.2-9.4-5.1c-6.9-4.4-14.3-8-21.4-12C271.3,237.1,266.6,234.4,262,231.5z"/>
<path class="st31" d="M310,207.5c0.3,0,0.6,0,1,0c0.7,1,0.5,1.7-0.9,2.6c-2.7,1.7-5.6,3.2-8.3,4.9c-2.8,1.7-6.1,2.7-8.5,5
	c-0.9,0.8-2.2,1.6-1.5,3.1c0.6,1.3,2,1.4,3.2,1.4c6.2,0,12.5,0,18.7,0c6.2,0,12.5-0.1,18.7,0c2.4,0,4.8,0.4,6.7,2.5
	c-16.7,0-33.4,0-50.1,0c-3.2-1.2-3.2-1.2-2.5-6c0-2.4,2.4-1.4,3.4-2.4c2.2-2,5-3.2,7.7-4.4c3.7-1.7,6.4-5.1,10.9-5.2
	C309,208.5,309.5,208,310,207.5z"/>
<path class="st32" d="M262,231.5c2.3-0.1,3.9,1.6,5.7,2.6c3.6,2.1,7.3,4.1,10.9,6.1c2.6,1.4,5.1,2.9,7.8,4.3
	c4.1,2.1,8.1,4.6,12.1,6.9c3.3,1.9,7.1,3.1,10,5.7c-0.7,1.8-2.1,1-3.1,0.7c-4-1.2-7.4-3.7-11-5.6c-5.2-2.8-10.2-6-15.6-8.6
	c-1.6-0.8-2.9-2.3-4.8-2.4c-1.9-1.6-4.2-2.6-6.5-3.5c-1.1-1.6-2.9-2.4-4.2-3.8C262.6,233,262.1,232.4,262,231.5z"/>
<path class="st33" d="M311,252.5c-0.3,0-0.6,0-1,0c-0.5-0.5-0.9-1-1.2-1.6c-4.3-3.3-8.9-6-13.8-8.3c-2.1-1-4.1-1.9-5.3-4
	c-1.3-2.2-0.5-4.3,2-4.7c1.8-0.3,3.6-0.6,5.4-0.6c12.1,0.1,24.3-0.2,36.4,0.2c1.3,0,2.6-0.5,3.9-0.9c0.7-0.2,1.4-0.2,2,0.4
	c-2,2.2-4.8,2.4-7.3,2.4c-10.6,0.2-21.3,0.1-32,0.1c-1.8,0-3.5-0.6-5.4-0.1c-1.3,0.3-2.3,0.8-2.7,1.9c-0.4,1.2,0.8,2,1.6,2.5
	c2.4,1.5,5,2.8,7.5,4.1c3.5,1.8,7,3.7,9.6,6.6C311.3,251,313,251.9,311,252.5z"/>
<path class="st34" d="M339.5,233c-0.7,0-1.3,0-2,0c-2,0.6-4.1,0.5-6.2,0.5c-11.7,0-23.3,0-35,0c-2.5,0-5,0.4-7.5,0.3
	c-1.7-0.2-3.3,0.1-5-0.1c-0.4,0-0.9-0.2-1.3-0.4c-0.7-0.7-0.4-1.3,0.4-1.7c19.2,0,38.3,0,57.5,0C340.5,232.2,340.5,233,339.5,233z"
	/>
<path class="st35" d="M286.5,221c0.4,0.1,0.9,0.2,0.6,0.7c-1.3,2.4-0.4,4.1,1.9,5.3c-4,0-8,0-12,0c-0.4-0.5-0.4-1,0-1.5
	c1.5-0.7,3-1.4,4.5-2c0.5-0.4,1-1,1.6-1.4c0.3,0,0.6,0,1,0c0.4-0.5,1.1-0.5,1.5-0.9C285.8,221,286.2,221,286.5,221z"/>
<path class="st31" d="M277,225.5c0,0.5,0,1,0,1.5c-0.5,0-1,0-1.5,0C275.4,225.9,275.9,225.4,277,225.5z"/>
<path class="st32" d="M308.5,202.5c-1.5,1.1-3.6,1.6-4.8,2.7c-1.4,1.3-3.3,1.7-4.5,3c-0.8,0.9-1.8,0.8-2.6,1.2
	c-4.6,2.1-8.8,4.9-13.3,7.2c-4.2,2.2-8.3,4.7-12.4,7.3c-2.5,1.6-5.3,2.8-7.9,4.2c-0.5-2.2,0.7-3.7,3.8-5c2.4-1,4.8-2.1,6.7-4
	c3.5-1.9,7.1-3.9,10.6-5.8c4.4-2.4,8.7-4.7,13.1-7.1c3.3-1.8,6.3-4.2,10.2-4.9C309.2,200.9,308.5,201.7,308.5,202.5z"/>
<path class="st13" d="M312,205c0-0.8,0-1.7,0-2.5c0.8,0,1.5,0.1,1.5,1.1C313.6,204.7,313,205.1,312,205z"/>
<path class="st27" d="M382,255.5c-1.3-1.7-1.4-4.7-0.3-6.4c1.3-2,4-2.9,6.3-2.2c4.9,1.5,9.1,4.2,13.4,6.7c1.5,0.9,3,1.6,4.5,2.4
	c7.9,4.4,15.9,8.6,23.7,13.2c3.1,1.8,6.1,4.1,5.5,8.6c-0.2,1.7-1,3.1-2.1,4.4c-2,2.2-4.5,3.7-7.3,5.1c-3.3,1.6-6.3,3.5-9.5,5.3
	c-2.8,1.6-5.6,3.1-8.4,4.6c-4,2.2-7.9,4.4-11.9,6.7c-2.9,1.7-5.9,3.3-9.2,4c-3.3,0.7-6.9-3.3-6.1-6.6c0.9-4,4-5.9,7.2-7.7
	c3.7-2.1,7.4-4.1,11-6.2c0.7-0.4,1.8-1,1.3-2.1c-0.4-0.9-1.3-1.1-2.3-1.1c-11.6-1.1-23.3-0.2-34.9-0.5c-3,0.1-5.9,0-8.5-1.8
	c-0.6-0.4-1.2-0.8-1-1.6c0.2-0.6,0.9-0.7,1.4-0.7c0.3,0,0.6,0.1,0.8,0.2c1.9,1.3,4,1.6,6.2,1.6c11,0,22,0,32.9,0
	c2.2,0,4.3,0.3,6.4,0.6c1.3,0.2,2.5,0.6,3,1.9c0.5,1.5-0.4,2.6-1.4,3.5c-2,1.8-4.5,2.8-6.8,4.2c-3.2,1.9-6.6,3.4-9.7,5.7
	c-0.8,0.6-1.7,1.1-1.9,2.2c-0.1,0.5-0.2,0.9-0.4,1.4c-1,2.9-0.5,3.6,2.4,3.7c0.3,0.4,0.4,1.1,1.3,0.7c1.8-0.7,3.6-1.1,5.2-2.3
	c3.4-2.5,7.4-4,11.1-6.1c5.3-3.1,10.7-6,16-9.1c2.1-1.3,4.6-2,6.6-3.4c2.2-1.5,4.8-2.7,5.6-5.7c0.1-1.1,0.1-2.2-1.2-2.7
	c-0.8-0.3-1.1-0.9-0.9-1.8c0.5-0.8,0.3-1.4-0.4-1.9c-1.5-1.1-3-2.4-4.7-3.2c-9.7-4.8-18.9-10.3-28.3-15.5c-3.2-1.8-6.6-3.4-10.3-4.3
	c-1.1,0-2.2-0.4-3.1,0.6c-0.1,0.2-0.3,0.4-0.4,0.5c-0.7,0.9-0.5,1.9-0.4,2.9c0.1,0.9,0.9,1.7,0.4,2.6
	C382.5,256.4,382.3,255.9,382,255.5z"/>
<path class="st36" d="M383,256c-0.3-0.8-0.7-1.7-1-2.5c0.3-0.3,0.7-0.4,1.1-0.4c0.8,0.1,1.2,0.6,1.4,1.3c1.6,3.7,5.3,4.9,8.4,6.7
	c3,1.7,6,3.6,9.1,5.1c1.7,0.8,3.3,1.8,3.1,4c-0.1,1.2-3.1,2.8-5,2.7c-0.9,0-1.8-0.2-2.7-0.2c-11.1,0-22.1-0.1-33.1,0
	c-2.7,0-5.5,0.2-8,1.5c-0.4,0.1-0.8,0.2-1.2,0.1c-1.5-1.1-0.2-1.8,0.5-2.1c1.4-0.6,2.8-1.3,4.4-1.2c0.3,0,0.7,0,1,0
	c11.2,0,22.3,0,33.5,0c1.4,0,2.8-0.2,4.2-0.6c0.7-0.2,1.6-0.2,1.7-1.2c0.1-0.8-0.3-1.5-0.9-1.9c-0.6-0.4-1.2-0.9-1.9-1.3
	c-1.4-1-3.1-1.6-4.5-2.5c-0.3-0.2-0.7-0.3-1-0.5c-0.7-0.7-1.7-1-2.5-1.5c-0.2-0.2-0.3-0.3-0.5-0.5c-2.1-0.8-3.9-2-5.4-3.6
	C383.1,257,382.7,256.7,383,256z"/>
<path class="st37" d="M397.5,266c1.2,0.1,2.1,0.8,2.9,1.7c0.6,0.6,1.4,1.1,0.8,2.1c-0.4,0.8-1.1,1.1-2,1.2
	c-3.8,0.6-7.6,0.5-11.4,0.5c-8,0-16,0-23.9,0c-1,0-2,0.1-2.9-0.5c0.7-0.8,1.7-0.5,2.6-0.5c10,0,20.1,0,30.1,0c0.5,0,1,0,1.5,0
	c1.6,0.1,3.4-0.1,4.1-1.6C400.1,267.4,397.8,267.2,397.5,266z"/>
<path class="st37" d="M360,271c-1.2,0.4-2.4,0.8-3.5,1.3c-0.7,0.3-1.8,0.5-1.5,1.7c0.4,0.4,0.4,0.8,0.3,1.3
	c-1.6,1.2-1.7,2.4-0.1,3.7c0.1,0.4,0.1,0.7-0.2,1c-0.7,0.1-1.8-0.1-0.7,1.1c1.4,1.4,3.2,1.8,5.1,2c1.2,0.1,2.5-0.5,3.5,0.5
	c-3.5,1.3-9.6-0.8-11.4-3.8c-1.6-2.7,0.2-7.4,3.5-8C356.7,271.4,358.2,269.9,360,271z"/>
<path class="st38" d="M341.6,275.5c1.3-0.1,2.5-0.2,2.4,1.8c0,2-1.3,1.7-2.5,1.7c-1.2,0-2.5,0.4-2.6-1.7
	C338.9,275.1,340.3,275.5,341.6,275.5z"/>
<path class="st37" d="M393,263.5c1.7,0.5,3.5,0.7,4.5,2.5c-0.8-0.2-1.7-0.3-2.5-0.5C394.3,264.8,393.7,264.2,393,263.5z"/>
<path class="st29" d="M325.1,279c-1.2-0.3-3.1,0.8-3.1-1.9c0.1-2.5,1.9-1.6,3-1.6c1.2,0,3-0.8,3,1.7
	C328.1,279.7,326.3,278.8,325.1,279z"/>
<path class="st29" d="M309.8,279c-1.4,0.1-2.4,0.1-2.4-1.7c0-1.7,0.9-1.8,2.2-1.8c1.3,0,2.4,0,2.4,1.9
	C312,279.1,310.9,279.1,309.8,279z"/>
<path class="st37" d="M383,256c1.4,2.4,4,3.3,6,5c-2.7-0.1-6.5-3.1-7-5.5C382.3,255.7,382.7,255.8,383,256z"/>
<path class="st37" d="M389.5,261.5c1.2-0.1,2,0.5,2.5,1.5C391,262.8,390,262.5,389.5,261.5z"/>
<path class="st15" d="M323,539.5c-35.1,0.1-64.2-28.9-64-64.3c0.1-34.7,28.9-64,64.7-63.7c34.4,0.3,63.8,28.9,63.4,65
	C386.6,510.7,358.2,539.5,323,539.5z"/>
<path class="st39" d="M288.5,233c16.3,0,32.7,0,49,0c-1,1.1-2.6,1.3-3.7,1.2c-12.5-0.6-25.1-0.1-37.6-0.2c-1.6,0-3.1,0.2-4.7,0.5
	c-1.5,0.3-2.1,2-1.3,3.4c1,1.8,2.5,3,4.5,3.6c3.4,1.1,6.2,3.3,9.2,5.1c2,1.2,4.5,1.9,5.6,4.3c-0.3,0.3-0.7,0.3-1,0
	c-1.4,0.3-2.3-0.6-3.5-1c-0.5-0.5-1-1-1.5-1.5c-2.7-1-5.4-2.4-7.8-3.9c-2.3-1.4-5-2.3-6.9-4.3c-0.7-0.7-2.2,0.2-2.3-1.4
	c0.3-0.6-0.2-0.9-0.4-1.3C285.3,235.5,286,234,288.5,233z"/>
<path class="st40" d="M288.5,233c-2.6,2.1-2.6,2.5-1.1,5.3c0.6,1.1-0.6,0.5-0.9,0.7c-1.5-0.8-3.3-1.2-4.5-2.5
	c-1.2-1.9,0.2-2.7,1.5-3.5C285.2,233,286.8,233,288.5,233z"/>
<path class="st41" d="M283,231.5c-0.2,0.5-0.3,1-0.5,1.5c-0.9,0.9-2.1,0.6-3.2,0.7c-0.8,0-1.6-0.4-2.3,0.3c-0.6,0-1.2,0.1-1.5-0.5
	c-0.3-0.4-1.1-0.7-0.8-1.4c0.2-0.7,0.9-0.6,1.5-0.6C278.4,231.5,280.7,231.5,283,231.5z"/>
<path class="st42" d="M277,234c0.3-1.5,1.5-0.9,2.3-0.9c1-0.1,2.1,0,3.1,0c0.3,0,0.7,0,1,0c-0.7,1.1-1.9,2-1.5,3.5
	c-1,0.1-1.5-1.1-2.5-1c-0.5-0.5-1-1-1.6-1.4C277.6,234,277.3,234,277,234z"/>
<path class="st26" d="M308.5,251c0.3,0,0.7,0,1,0c0.6,0.4,0.5,0.9,0.5,1.5C308.9,252.6,308.4,252.1,308.5,251z"/>
<path class="st26" d="M310,207.5c0.1,1.1-0.4,1.6-1.5,1.5C308.4,207.9,308.9,207.4,310,207.5z"/>
<path class="st43" d="M303.5,248.5c1.1-0.1,1.6,0.4,1.5,1.5C303.9,250.1,303.4,249.6,303.5,248.5z"/>
<path class="st31" d="M278,234c1.1-0.2,1.6,0.3,1.6,1.4C278.4,235.6,277.9,235.1,278,234z"/>
<path class="st44" d="M283,222c0.1,1.1-0.4,1.6-1.6,1.4C281.4,222.4,281.9,221.9,283,222z"/>
<path class="st31" d="M285.5,221.1c-0.1,1-0.8,1-1.5,0.9C284.1,221,284.8,221,285.5,221.1z"/>
<path class="st16" d="M355,279c-1.5,0.2-1.8-1-1.8-2c0-1,0.7-1.6,1.8-1.5c1-0.9,2.2-0.7,3.3-0.7c17.1,0,34.3,0,51.4,0
	c3.1,0.1,6.3,0.1,9.4,0c0.2-0.8-0.5-0.8-0.8-1c-2-1-3.8-2.1-5.8-3c-1.9-1.8-4.6-2-6.6-3.6c-2.9-1.6-5.4-3.7-8.5-5
	c-2.9-1.2-5.8-2.5-8.2-4.6c-0.7-0.6-1.6-0.8-2.5-1.2c-0.6-0.3-0.8-1.1-1.6-1.2c-0.4-0.1-0.9-0.3-1.1-0.7c0-0.6-0.4-1-1-1
	c-0.7-1.2-0.7-2.3,0-3.5l0,0c0.8-0.7,1.8-0.7,2.8-0.7c1.3,0,2.4,0.3,3.2,1.3c0.5,0.7,1,1.3,1.9,1.4c3.5,1.4,6.8,3.3,10.1,5.3
	c4.1,2.5,8.2,5,12.6,7c4.6,2,8.5,5.1,13.1,7c1.3,0.5,2.4,2,3.8,2.7c0.1,0.5,0,1.2,0.5,1.3c2.7,0.1,2,2.1,2.1,3.7
	c-0.2,0.3-0.6,0.4-0.9,0.5c-0.7,0.2-1.2,0.5-1.6,1.1c-0.5,0.6-1,1.1-1.7,1.5c-7.4,3.3-14.2,7.8-21.4,11.6c-4.7,2.5-9,5.5-14,7.4
	c-1.9,0.7-3.1,2.5-4.9,3.3c-0.7,0.3-1.3,0.8-2,0.2c-0.9-0.2-1.5,1.7-2.7,0.3c-1.2-1.4-0.9-2.7-0.5-4.1c0.1-0.4,0.7-0.7,0.7-1.2
	c0.3-0.4,0.7-0.5,1.1-0.7c0.7-0.1,0.9-0.9,1.5-1.2c1.9-0.6,3.6-1.5,5.5-2.2c0.9-0.1,1.3-0.7,1.8-1.3c0.8-1.1,2.1-1.4,3.1-1.9
	c3.1-1.4,5.8-3.4,8.7-5c0.4-0.2,0.9-0.3,1.3-0.4c0.7-0.1,1-0.8,1.5-1.1c1.2-0.4,2.3-0.9,3.4-1.3c0.7-0.1,1-0.7,1.4-1.2
	c1.3-1.3,3.1-1.6,4.6-2.3c0.6-0.1,1-0.5,1.3-1.1c-0.6-0.3-1.3,0-1.9-0.1c-19.5,0-39.1,0-58.6,0C357.5,279.7,356.2,279.9,355,279z"/>
<path class="st45" d="M385.5,299.5c-0.5,0-1,0-1.5,0c-0.9-1.9,1-2.2,1.8-2.9c2.9-2.2,6.2-3.7,9.4-5.6c2.5-1.5,5.3-2.4,7.4-4.4
	c0.8-0.7,1.8-1.5,1.3-2.7c-0.5-1.2-1.7-1.3-2.9-1.5c-7.1-1-14.2-0.3-21.4-0.5c-6.3-0.1-12.6,0-18.9,0c-1.9,0-3.8-0.3-5.1-2
	c1.7-1,3.6-0.3,5.4-0.5c1.2,0.3,2.5,0.2,3.7,0.2c10.5,0,20.9,0.1,31.4,0c2.7,0,5.3,0.3,7.9,0.5c1.7,0.1,3.8,0.7,4.4,2.7
	c0.7,2.1-1,3.3-2.3,4.6c-2.1,1.5-3.8,3.4-6.3,4.2c-2.1,0.6-3.6,2.3-5.7,2.8c-0.5,0.5-1,1-1.5,1.5c-1.9,0.8-3.7,2.1-5.9,2
	C386,298.4,386,299.1,385.5,299.5z"/>
<path class="st32" d="M432,279c0.3,0,0.7,0,1-0.1c-2.1,4.3-6.1,6-10,8c-3.8,1.9-7.6,3.9-11.1,6.2c-2.4,1.6-5.2,2.5-7.6,4.1
	c-3.8,2.5-8.2,3.8-11.8,6.7c-1.5,1.2-3.5,1.2-5.2,1.9c-1.3,0.5-0.7-0.8-0.8-1.4c1.4-0.7,3-1.2,4-2.2c2.6-2.6,6-3.8,9.2-5
	c1.9-0.7,2.8-2.4,4.7-3.1c4.8-1.7,8.7-5.2,13.6-7c2.4-0.9,4.3-3.3,6.8-4.4c2-0.8,4-1.5,5.7-2.8C430.9,279.5,431.6,279.5,432,279z"/>
<path class="st32" d="M389,251c-1-0.3-1.7-1.4-3-1c-0.6-0.7,0-1.1,0.5-1.5c4.1,1.2,8,3,11.7,5.2c3,1.7,6,3.3,9,5
	c2.5,1.4,5,2.9,7.5,4.3c2.9,1.6,5.8,3.6,8.9,4.8c2.9,1.1,5,3.1,7.5,4.7c0.4,0.3,0.9,0.6,0.7,1.2c-0.2,0.6-0.8,0.4-1.3,0.5
	c-1.4,0.2-2.7-0.2-3.4-1.5c-0.4-0.7-0.9-0.8-1.5-1c-2.5-0.9-4.6-2.3-6.9-3.6c-2-1.2-4.2-2.2-6.2-3.3c-2.6-1.4-5.3-2.7-7.6-4.6
	c-0.8-0.6-1.7-0.4-2.5-0.9c-3.8-2.4-7.5-5.1-11.9-6.5C390,252,389.5,251.5,389,251z"/>
<path class="st14" d="M361,280c-1.8,0-3.7,0-5.5,0c-0.2,0-0.3,0-0.5,0c0-0.3,0-0.7,0-1c21.2,0,42.3,0,63.5,0
	c1.1,0.9,0.3,1.2-0.4,1.5c-2.3,0.4-4.6,0.2-6.9,0.2c-4.3,0.4-8.6-0.5-12.9-0.5c-11.5,0.1-23.1,0-34.6,0
	C362.8,280.2,361.9,280.4,361,280z"/>
<path class="st14" d="M386.5,248.5c-0.2,0.5-0.3,1-0.5,1.5c-1,0-2,0-3,0C383.2,247.3,385.3,249,386.5,248.5z"/>
<path class="st14" d="M383,250c0,1.2,0,2.3,0,3.5c-0.3,0-0.7,0-1,0C382.3,252.3,381.2,250.7,383,250z"/>
<path class="st46" d="M386.5,256c2.6-0.6,3.6,2,5.6,2.8c2.5,0.9,4.6,2.5,7.2,3.5c2.2,0.8,3.8,3.1,6.4,3.6c0.2,0,0.2,0.7,0.3,1.1
	c0.2,0.7,0.8,1,1.2,1.5c1.6,1.8,1.1,4.4-1.2,5.1c-1,0.3-2,0.8-3.1,1c-14.9,0.2-29.8,0.1-44.7,0.1c-0.8,0-1.7-0.1-2.3-0.7
	c2.1-2,5-1.9,7.5-1.9c11.5-0.2,23-0.1,34.4,0c1.9,0,3.7,0.3,5.4-0.7c1.7-1,1.7-1.9,0.5-3.3c-1-1.1-2.3-1.2-3.5-1.9
	c-4.3-2.6-8.7-5-13-7.5c-1.6-0.9-2.7-2.3-3.3-4.2c0.5,0,1,0,1.5,0C386,254.9,386,255.6,386.5,256z"/>
<path class="st47" d="M356,274c16,0,32,0,48,0c2.1-0.3,4.2-1.3,6.4-0.2c0.5,0.5,0.5,1.1,0.1,1.7c-18.5,0-37,0-55.5,0
	c0-0.5,0-1,0-1.5C355.3,274,355.7,274,356,274z"/>
<path class="st30" d="M316.3,481.4c3.5-6,8.2-11.2,12.2-17.4c-5.5,0-10.7,0-15.8,0c-0.8,0-1.2,0.5-1.2,1.3
	c0.2,5.7-0.5,11.5,0.4,17.2c0.6,4.1,3.5,5.2,6.8,2.6c0.5-0.4,0.8-0.8,1.3-1.2c0.6-0.5,1.2-1.8,2.2-1c0.8,0.7,0.5,1.9-0.1,2.8
	c-2.4,4.1-5.3,4.6-10.4,3.7c-4.4-0.8-6-3.5-6.1-9.5c-0.1-4.4-0.1-8.8,0-13.2c0.1-2.2-0.7-2.8-2.7-2.6c-1.3,0.1-2.7,0-4,0
	c-1.4,0.1-2-0.4-1.9-1.8c0-1.4,0.6-1.7,1.8-1.7c1.7,0.1,3.3,0,5,0c1.3,0.1,1.9-0.4,1.7-1.7c-0.3-2.6,0.8-5.3-1.5-7.6
	c-0.8-0.8-0.3-1.6,0.8-1.7c1.5-0.1,3-0.1,4.5,0c1.4,0.2,2.4,1,2.3,2.7c-0.1,2,0.1,4-0.1,6c-0.1,1.8,0.5,2.3,2.3,2.3c6-0.1,12,0,18,0
	c0.7,0,1.3-0.1,2,0.1c1.1,0.2,1.8,1,2.2,1.9c0.6,1-0.6,1.4-1.1,1.9c-3.7,3.9-7.4,7.8-11.3,12c1.5,0.4,2.8,0.1,4.1,0.5
	c7.5,2.2,10.3,9.5,9.1,17c-1.8,10.8-11.1,12.8-18.8,10.7c-3.5-1-5.6-3.7-6.1-7.5c-0.2-1.9,0.1-3.6,2.1-4.3c1.5-0.5,3.3-0.5,4.3,1
	c1.2,1.6,1.3,3.6-0.1,5.1c-1.4,1.5-0.5,1.8,0.6,2.4c5.1,2.3,10.3-0.2,11.6-5.7c0.8-3.3,0.8-6.6-0.1-9.9c-1.5-5.5-6.2-7.5-11.3-4.9
	c-0.7,0.4-1.4,0.8-2.2,1.2C316.8,481.7,316.5,481.6,316.3,481.4z"/>
<path class="st48" d="M361,280c16.8,0,33.7,0,50.5,0c1,1,1.1,2.3,1.4,3.5c0.1,0.5,0,1-0.4,1.4c-1.4,0-2.4,1.6-4,1
	c-0.5,0.3-0.5,1.1-1,1.5c-0.5,0-1,0-1.5,0.1c-0.6-0.6,0.1-0.9,0.4-1.2c0.9-1,2.1-2.1,1.4-3.4c-0.7-1.4-2.6-2-4-2.1
	c-3.4-0.4-6.9-0.3-10.3-0.3c-10,0-19.9,0-29.9,0C362.7,280.5,361.8,280.8,361,280z"/>
<path class="st49" d="M410.5,274c-2.2,0-4.3,0-6.5,0c0.3-0.7,0.8-0.9,1.6-0.8c1.4,0.1,1.6-1.1,2-2.1c0.4-1,0-1.4-0.7-2
	c-0.5-0.5-1.9-0.8-0.9-2.1c2.3,0.3,4,1.9,6.2,2.4c0.2,0,0.2,0.7,0.3,1.1c-0.5,1.2-0.6,2.5-1.4,3.6
	C410.9,274.2,410.7,274.2,410.5,274z"/>
<path class="st50" d="M411,274c0.4-1.2-0.1-2.8,1.5-3.5c2.3,0,3.9,1.8,5.9,2.6c0.5,0.9-0.1,1.4-0.8,1.5
	C415.5,274.7,413.2,275.3,411,274z"/>
<path class="st51" d="M412.5,283.5c-0.7-1.1-0.9-2.3-1-3.5c2.3,0,4.7,0,7,0c0.4,0.5,0.4,1,0,1.5c-1.7,0.7-3.3,1.4-5,2
	C413.2,283.8,412.8,283.8,412.5,283.5z"/>
<path class="st52" d="M411,274c1.9,0,3.7,0,5.6,0c0.8,0,1.7,0.3,1.9-1c0.2,0.1,0.7,0.1,0.7,0.2c0.3,0.9,2.1,0.5,1.6,1.8
	c-0.4,0.9-1.5,0.4-2.3,0.5c-2.7,0-5.3,0-8,0c0-0.5,0-1,0-1.5C410.7,274,410.8,274,411,274z"/>
<path class="st45" d="M418.5,281.5c0-0.5,0-1,0-1.5c0.5-0.3,0-0.6,0-1c0.7,0,1.5-0.2,2.5,0.4C419.7,279.7,419.8,281.3,418.5,281.5z"
	/>
<path class="st53" d="M389,251c1.1-0.1,1.6,0.4,1.5,1.5C389.4,252.6,388.9,252.1,389,251z"/>
<path class="st0" d="M392.5,296c-0.1-1.1,0.4-1.6,1.5-1.5C394.1,295.6,393.6,296.1,392.5,296z"/>
<path class="st54" d="M412.5,283.5c0.3,0,0.7,0,1,0c0,0.7,0,1.5-1,1.5C412.5,284.5,412.5,284,412.5,283.5z"/>
<path class="st45" d="M407.5,287.5c0-0.7,0-1.5,1-1.5C408.5,286.7,408.5,287.5,407.5,287.5z"/>
<path class="st27" d="M432,279c-0.1,1-0.8,1-1.5,1C430.6,279,431.3,279,432,279z"/>
<path class="st27" d="M385.5,299.5c0-0.7,0-1.5,1-1.5C386.5,298.7,386.5,299.5,385.5,299.5z"/>
<path class="st36" d="M386.5,256c-1,0-1-0.7-1-1.5C386.5,254.5,386.5,255.3,386.5,256z"/>
</svg>
